<svg width="65" height="64" viewBox="0 0 65 64" fill="none" xmlns="http://www.w3.org/2000/svg">
<path fill-rule="evenodd" clip-rule="evenodd" d="M40.25 58.6667H24.25C19.8313 58.6667 16.25 55.0853 16.25 50.6667V13.3333C16.25 8.91468 19.8313 5.33334 24.25 5.33334H40.25C44.6687 5.33334 48.25 8.91468 48.25 13.3333V50.6667C48.25 55.0853 44.6687 58.6667 40.25 58.6667Z" stroke="black" stroke-width="1.72973" stroke-linecap="round" stroke-linejoin="round"/>
<path fill-rule="evenodd" clip-rule="evenodd" d="M32.2526 48C30.7806 48 29.5859 49.1947 29.5859 50.6667C29.5859 52.1387 30.7806 53.3333 32.2526 53.3333C33.7246 53.3333 34.9193 52.1387 34.9193 50.6667C34.9193 49.1947 33.7246 48 32.2526 48Z" fill="black"/>
<path d="M16.6836 31.1351L25.3322 26.8108V19.8919L32.2512 16.8649" stroke="black" stroke-width="1.72973" stroke-linecap="round"/>
<path d="M16.25 36.7568L23.6014 37.1892L28.3581 31.5676L37.0068 36.7568L40.0338 34.1622" stroke="black" stroke-width="1.72973" stroke-linecap="round"/>
<path d="M47.5 48L43.5 45H37.5L31.5 41" stroke="black" stroke-width="2" stroke-linecap="round"/>
<path d="M39.8521 18.6689C40.0781 18.6689 40.2948 18.5792 40.4546 18.4194C40.6144 18.2596 40.7042 18.0428 40.7042 17.8168V11.8521C40.7042 11.6261 40.6144 11.4094 40.4546 11.2496C40.2948 11.0898 40.0781 11 39.8521 11C39.6261 11 39.4094 11.0898 39.2496 11.2496C39.0898 11.4094 39 11.6261 39 11.8521V17.8168C39 18.0428 39.0898 18.2596 39.2496 18.4194C39.4094 18.5792 39.6261 18.6689 39.8521 18.6689Z" fill="black"/>
<path d="M39.8521 22.9295C40.0781 22.9295 40.2948 22.8397 40.4546 22.6799C40.6144 22.5201 40.7042 22.3034 40.7042 22.0774V21.2253C40.7042 20.9993 40.6144 20.7825 40.4546 20.6227C40.2948 20.4629 40.0781 20.3732 39.8521 20.3732C39.6261 20.3732 39.4094 20.4629 39.2496 20.6227C39.0898 20.7825 39 20.9993 39 21.2253V22.0774C39 22.3034 39.0898 22.5201 39.2496 22.6799C39.4094 22.8397 39.6261 22.9295 39.8521 22.9295Z" fill="black"/>
</svg>
