<svg width="64" height="64" viewBox="0 0 64 64" fill="none" xmlns="http://www.w3.org/2000/svg">
<path fill-rule="evenodd" clip-rule="evenodd" d="M40 58.6667H24C19.5813 58.6667 16 55.0853 16 50.6667V13.3333C16 8.91468 19.5813 5.33334 24 5.33334H40C44.4187 5.33334 48 8.91468 48 13.3333V50.6667C48 55.0853 44.4187 58.6667 40 58.6667Z" stroke="black" stroke-width="1.72973" stroke-linecap="round" stroke-linejoin="round"/>
<path fill-rule="evenodd" clip-rule="evenodd" d="M32.0026 48C30.5306 48 29.3359 49.1947 29.3359 50.6667C29.3359 52.1387 30.5306 53.3333 32.0026 53.3333C33.4746 53.3333 34.6693 52.1387 34.6693 50.6667C34.6693 49.1947 33.4746 48 32.0026 48Z" fill="black"/>
<path fill-rule="evenodd" clip-rule="evenodd" d="M27.8095 37.0952L27.8095 25.3333C27.8095 24.3339 28.6196 23.5238 29.619 23.5238L35.0476 23.5238C36.047 23.5238 36.8571 24.3339 36.8571 25.3333L36.8571 37.0952C36.8571 38.0946 36.047 38.9047 35.0476 38.9047L29.619 38.9047C28.6196 38.9047 27.8095 38.0946 27.8095 37.0952ZM29.619 40.7143C27.6203 40.7143 26 39.0939 26 37.0952L26 25.3333C26 23.3346 27.6203 21.7143 29.619 21.7143L29.619 19.9048C29.619 19.4051 30.0241 19 30.5238 19L34.1428 19C34.6425 19 35.0476 19.4051 35.0476 19.9048L35.0476 21.7143C37.0463 21.7143 38.6667 23.3346 38.6667 25.3333L38.6667 37.0952C38.6667 39.0939 37.0463 40.7143 35.0476 40.7143L29.619 40.7143Z" fill="black"/>
<path d="M29.6235 37.9987C29.1238 37.9987 28.7187 37.5937 28.7187 37.094C28.7187 36.5943 29.1238 36.1892 29.6235 36.1892L35.0521 36.1892C35.5518 36.1892 35.9568 36.5943 35.9568 37.094C35.9568 37.5937 35.5518 37.9987 35.0521 37.9987L29.6235 37.9987Z" fill="black"/>
</svg>
