<svg width="64" height="64" viewBox="0 0 64 64" fill="none" xmlns="http://www.w3.org/2000/svg">
<path fill-rule="evenodd" clip-rule="evenodd" d="M40 58.6667H24C19.5813 58.6667 16 55.0853 16 50.6667V13.3333C16 8.91468 19.5813 5.33334 24 5.33334H40C44.4187 5.33334 48 8.91468 48 13.3333V50.6667C48 55.0853 44.4187 58.6667 40 58.6667Z" stroke="black" stroke-width="1.72973" stroke-linecap="round" stroke-linejoin="round"/>
<path fill-rule="evenodd" clip-rule="evenodd" d="M32.0026 48C30.5306 48 29.3359 49.1947 29.3359 50.6667C29.3359 52.1387 30.5306 53.3333 32.0026 53.3333C33.4746 53.3333 34.6693 52.1387 34.6693 50.6667C34.6693 49.1947 33.4746 48 32.0026 48Z" fill="black"/>
<path d="M16.4336 31.1351L25.0822 26.8108V19.8919L32.0012 16.8649" stroke="black" stroke-width="1.72973" stroke-linecap="round"/>
<path d="M16 36.7568L23.3514 37.1892L28.1081 31.5676L36.7568 36.7568L39.7838 34.1622" stroke="black" stroke-width="1.72973" stroke-linecap="round"/>
</svg>
