<svg width="41" height="40" viewBox="0 0 41 40" fill="none" xmlns="http://www.w3.org/2000/svg">
<rect x="0.5" width="40" height="40" rx="16" fill="#2177F4"/>
<rect x="0.5" width="40" height="40" rx="16" stroke="#2177F4"/>
<path fill-rule="evenodd" clip-rule="evenodd" d="M19 25.9929C18.172 25.9929 17.5 26.6649 17.5 27.4929C17.5 28.3209 18.172 28.9929 19 28.9929C19.828 28.9929 20.5 28.3209 20.5 27.4929C20.5 26.6649 19.828 25.9929 19 25.9929Z" fill="white"/>
<path fill-rule="evenodd" clip-rule="evenodd" d="M26 25.9929C25.172 25.9929 24.5 26.6649 24.5 27.4929C24.5 28.3209 25.172 28.9929 26 28.9929C26.828 28.9929 27.5 28.3209 27.5 27.4929C27.5 26.6649 26.828 25.9929 26 25.9929Z" fill="white"/>
<path d="M11.5 13H13.831C14.797 13 15.626 13.691 15.799 14.642L17.201 22.358C17.374 23.309 18.203 24 19.169 24H25.994C26.886 24 27.67 23.41 27.916 22.553L29.461 17.181C29.636 16.572 29.207 15.955 28.574 15.908L16.5 15" stroke="white" stroke-width="2" stroke-linecap="round" stroke-linejoin="round"/>
</svg>
