<svg width="24" height="25" viewBox="0 0 24 25" fill="none" xmlns="http://www.w3.org/2000/svg">
<path d="M16.7502 4.06V2.5C16.7502 2.09 16.4102 1.75 16.0002 1.75C15.5902 1.75 15.2502 2.09 15.2502 2.5V4H8.75023V2.5C8.75023 2.09 8.41023 1.75 8.00023 1.75C7.59023 1.75 7.25023 2.09 7.25023 2.5V4.06C4.55023 4.31 3.24023 5.92 3.04023 8.31C3.02023 8.6 3.26023 8.84 3.54023 8.84H20.4602C20.7502 8.84 20.9902 8.59 20.9602 8.31C20.7602 5.92 19.4502 4.31 16.7502 4.06Z" fill="#0B1839"/>
<path opacity="0.4" d="M20 10.3398C20.55 10.3398 21 10.7898 21 11.3398V17.4998C21 20.4998 19.5 22.4998 16 22.4998H8C4.5 22.4998 3 20.4998 3 17.4998V11.3398C3 10.7898 3.45 10.3398 4 10.3398H20Z" fill="#0B1839"/>
<path d="M8.5 15.4999C8.24 15.4999 7.98 15.3899 7.79 15.2099C7.61 15.0199 7.5 14.7599 7.5 14.4999C7.5 14.2399 7.61 13.9799 7.79 13.7899C8.07 13.5099 8.51 13.4199 8.88 13.5799C9.01 13.6299 9.12 13.6999 9.21 13.7899C9.39 13.9799 9.5 14.2399 9.5 14.4999C9.5 14.7599 9.39 15.0199 9.21 15.2099C9.02 15.3899 8.76 15.4999 8.5 15.4999Z" fill="#0B1839"/>
<path d="M12 15.4999C11.74 15.4999 11.48 15.3899 11.29 15.2099C11.11 15.0199 11 14.7599 11 14.4999C11 14.2399 11.11 13.9799 11.29 13.7899C11.38 13.6999 11.49 13.6299 11.62 13.5799C11.99 13.4199 12.43 13.5099 12.71 13.7899C12.89 13.9799 13 14.2399 13 14.4999C13 14.7599 12.89 15.0199 12.71 15.2099C12.66 15.2499 12.61 15.2899 12.56 15.3299C12.5 15.3699 12.44 15.3999 12.38 15.4199C12.32 15.4499 12.26 15.4699 12.2 15.4799C12.13 15.4899 12.07 15.4999 12 15.4999Z" fill="#0B1839"/>
<path d="M15.5 15.5C15.24 15.5 14.98 15.39 14.79 15.21C14.61 15.02 14.5 14.76 14.5 14.5C14.5 14.24 14.61 13.98 14.79 13.79C14.89 13.7 14.99 13.63 15.12 13.58C15.3 13.5 15.5 13.48 15.7 13.52C15.76 13.53 15.82 13.55 15.88 13.58C15.94 13.6 16 13.63 16.06 13.67C16.11 13.71 16.16 13.75 16.21 13.79C16.39 13.98 16.5 14.24 16.5 14.5C16.5 14.76 16.39 15.02 16.21 15.21C16.16 15.25 16.11 15.29 16.06 15.33C16 15.37 15.94 15.4 15.88 15.42C15.82 15.45 15.76 15.47 15.7 15.48C15.63 15.49 15.56 15.5 15.5 15.5Z" fill="#0B1839"/>
<path d="M8.5 19C8.37 19 8.24 18.97 8.12 18.92C7.99 18.87 7.89 18.8 7.79 18.71C7.61 18.52 7.5 18.26 7.5 18C7.5 17.74 7.61 17.48 7.79 17.29C7.89 17.2 7.99 17.13 8.12 17.08C8.3 17 8.5 16.98 8.7 17.02C8.76 17.03 8.82 17.05 8.88 17.08C8.94 17.1 9 17.13 9.06 17.17C9.11 17.21 9.16 17.25 9.21 17.29C9.39 17.48 9.5 17.74 9.5 18C9.5 18.26 9.39 18.52 9.21 18.71C9.16 18.75 9.11 18.8 9.06 18.83C9 18.87 8.94 18.9 8.88 18.92C8.82 18.95 8.76 18.97 8.7 18.98C8.63 18.99 8.57 19 8.5 19Z" fill="#0B1839"/>
<path d="M12 19.0002C11.74 19.0002 11.48 18.8902 11.29 18.7102C11.11 18.5202 11 18.2602 11 18.0002C11 17.7402 11.11 17.4802 11.29 17.2902C11.66 16.9202 12.34 16.9202 12.71 17.2902C12.89 17.4802 13 17.7402 13 18.0002C13 18.2602 12.89 18.5202 12.71 18.7102C12.52 18.8902 12.26 19.0002 12 19.0002Z" fill="#0B1839"/>
<path d="M15.5 19.0002C15.24 19.0002 14.98 18.8902 14.79 18.7102C14.61 18.5202 14.5 18.2602 14.5 18.0002C14.5 17.7402 14.61 17.4802 14.79 17.2902C15.16 16.9202 15.84 16.9202 16.21 17.2902C16.39 17.4802 16.5 17.7402 16.5 18.0002C16.5 18.2602 16.39 18.5202 16.21 18.7102C16.02 18.8902 15.76 19.0002 15.5 19.0002Z" fill="#0B1839"/>
</svg>
