<svg width="57" height="56" viewBox="0 0 57 56" fill="none" xmlns="http://www.w3.org/2000/svg">
<path fill-rule="evenodd" clip-rule="evenodd" d="M39.2496 30.3343C37.313 30.3343 35.7496 28.771 35.7496 26.8343C35.7496 24.8977 37.313 23.3343 39.2496 23.3343C41.1863 23.3343 42.7496 24.8977 42.7496 26.8343C42.7496 28.771 41.1863 30.3343 39.2496 30.3343ZM29.9163 30.3343C27.9796 30.3343 26.4163 28.771 26.4163 26.8343C26.4163 24.8977 27.9796 23.3343 29.9163 23.3343C31.853 23.3343 33.4163 24.8977 33.4163 26.8343C33.4163 28.771 31.853 30.3343 29.9163 30.3343ZM20.583 30.3343C18.6463 30.3343 17.083 28.771 17.083 26.8343C17.083 24.8977 18.6463 23.3343 20.583 23.3343C22.5196 23.3343 24.083 24.8977 24.083 26.8343C24.083 28.771 22.5196 30.3343 20.583 30.3343ZM40.4163 4.66766H19.4163C12.9763 4.66766 7.74963 9.89433 7.74963 16.3343V34.231C7.74963 35.7243 7.25963 37.2177 6.34963 38.431L4.0163 41.5343C2.94296 42.9577 2.77963 44.8243 3.57296 46.411C4.3663 48.021 5.9763 49.001 7.74963 49.001H40.4163C46.8563 49.001 52.083 43.7743 52.083 37.3343V16.3343C52.083 9.89433 46.8563 4.66766 40.4163 4.66766Z" fill="#2177F4"/>
</svg>
