<svg width="22" height="22" viewBox="0 0 22 22" fill="none" xmlns="http://www.w3.org/2000/svg">
<path fill-rule="evenodd" clip-rule="evenodd" d="M20.1654 11C20.1654 16.06 16.0587 20.1666 10.9987 20.1666C5.9387 20.1666 1.83203 16.06 1.83203 11C1.83203 5.93998 5.9387 1.83331 10.9987 1.83331C13.327 1.83331 15.4537 2.70415 17.067 4.14331C16.8837 4.26248 16.682 4.40915 16.4712 4.56498C13.8495 6.36165 11.2462 9.99165 9.8162 12.7233C9.0737 11.6416 8.10203 10.4775 7.0662 9.43248C6.7087 9.07498 6.12203 9.07498 5.76453 9.43248C5.40703 9.78998 5.40703 10.3766 5.76453 10.7341C7.1762 12.1458 8.48703 13.8508 9.1012 15.0791C9.14703 15.1616 9.20203 15.2441 9.2662 15.3083C9.28453 15.3266 9.30286 15.3358 9.3212 15.345C9.38536 15.4091 9.4587 15.455 9.5412 15.4916C9.55953 15.5008 9.5687 15.51 9.58703 15.5191C9.5962 15.5283 9.60536 15.5191 9.6237 15.5283C9.71536 15.5558 9.8162 15.5833 9.91703 15.5833H9.9262C10.0454 15.5833 10.1737 15.5466 10.2837 15.5008C10.302 15.4916 10.3112 15.4916 10.3295 15.4825C10.3479 15.4825 10.3479 15.4641 10.3662 15.455C10.4487 15.4183 10.522 15.3541 10.5862 15.29C10.5954 15.2716 10.6137 15.2625 10.6229 15.2533C10.687 15.18 10.7329 15.0975 10.7695 15.0058C11.7229 12.595 14.6654 8.02081 17.5345 6.05915C17.837 5.83915 18.0937 5.64665 18.3229 5.49998C19.4779 7.03081 20.1654 8.93748 20.1654 11Z" fill="#02A144"/>
</svg>
