<svg width="32" height="32" viewBox="0 0 32 32" fill="none" xmlns="http://www.w3.org/2000/svg">
<path opacity="0.2" fill-rule="evenodd" clip-rule="evenodd" d="M28 16C28 22.628 22.628 28 16 28C9.372 28 4 22.628 4 16C4 9.372 9.372 4 16 4C22.628 4 28 9.372 28 16Z" fill="#2177F4"/>
<path fill-rule="evenodd" clip-rule="evenodd" d="M28 16C28 22.628 22.628 28 16 28C9.372 28 4 22.628 4 16C4 9.372 9.372 4 16 4C22.628 4 28 9.372 28 16Z" stroke="#2177F4" stroke-width="2" stroke-linecap="round" stroke-linejoin="round"/>
<path d="M21.3338 12.7617L13.8418 19.6191" stroke="#2177F4" stroke-width="2" stroke-linecap="round" stroke-linejoin="round"/>
<path d="M13.8407 19.6189L10.666 15.8096" stroke="#2177F4" stroke-width="2" stroke-linecap="round" stroke-linejoin="round"/>
</svg>
