<svg width="24" height="24" viewBox="0 0 24 24" fill="none" xmlns="http://www.w3.org/2000/svg">
<path d="M7.42601 18H20C19.997 18.93 19.978 19.623 19.887 20.17C19.777 20.823 19.577 21.168 19.271 21.414C18.964 21.66 18.534 21.821 17.721 21.908C16.884 21.998 15.775 22 14.185 22H9.75501C8.16501 22 7.05501 21.999 6.21901 21.908C5.40601 21.821 4.97601 21.66 4.66901 21.414C4.36201 21.168 4.16301 20.823 4.05301 20.171L4.03101 20.02C3.99101 19.729 3.97101 19.583 4.09701 19.24C4.22401 18.896 4.27801 18.843 4.38801 18.735C4.74455 18.3955 5.19016 18.1642 5.67301 18.068C5.96301 18.006 6.34301 18 7.42601 18Z" fill="#0B1839"/>
<path opacity="0.55" d="M4.727 2.733C5.033 2.425 5.461 2.225 6.271 2.115C7.105 2.002 8.209 2 9.793 2H14.207C15.791 2 16.895 2.002 17.729 2.115C18.539 2.225 18.967 2.425 19.273 2.733C19.578 3.041 19.777 3.473 19.886 4.29C19.998 5.13 20 6.245 20 7.842V18H7.426C6.342 18 5.964 18.006 5.673 18.068C5.16 18.178 4.713 18.415 4.388 18.735C4.278 18.843 4.224 18.896 4.097 19.24C4.03698 19.3862 4.00411 19.542 4 19.7V7.842C4 6.245 4.002 5.131 4.114 4.29C4.223 3.474 4.422 3.041 4.727 2.733Z" fill="#0B1839"/>
<path d="M7.25 7C7.25 6.80109 7.32902 6.61032 7.46967 6.46967C7.61032 6.32902 7.80109 6.25 8 6.25H16C16.1989 6.25 16.3897 6.32902 16.5303 6.46967C16.671 6.61032 16.75 6.80109 16.75 7C16.75 7.19891 16.671 7.38968 16.5303 7.53033C16.3897 7.67098 16.1989 7.75 16 7.75H8C7.80109 7.75 7.61032 7.67098 7.46967 7.53033C7.32902 7.38968 7.25 7.19891 7.25 7ZM8 9.75C7.80109 9.75 7.61032 9.82902 7.46967 9.96967C7.32902 10.1103 7.25 10.3011 7.25 10.5C7.25 10.6989 7.32902 10.8897 7.46967 11.0303C7.61032 11.171 7.80109 11.25 8 11.25H13C13.1989 11.25 13.3897 11.171 13.5303 11.0303C13.671 10.8897 13.75 10.6989 13.75 10.5C13.75 10.3011 13.671 10.1103 13.5303 9.96967C13.3897 9.82902 13.1989 9.75 13 9.75H8Z" fill="#0B1839"/>
</svg>
