<svg width="65" height="64" viewBox="0 0 65 64" fill="none" xmlns="http://www.w3.org/2000/svg">
<path fill-rule="evenodd" clip-rule="evenodd" d="M40.5 58.6667H24.5C20.0813 58.6667 16.5 55.0853 16.5 50.6667V13.3333C16.5 8.91468 20.0813 5.33334 24.5 5.33334H40.5C44.9187 5.33334 48.5 8.91468 48.5 13.3333V50.6667C48.5 55.0853 44.9187 58.6667 40.5 58.6667Z" stroke="black" stroke-width="1.72973" stroke-linecap="round" stroke-linejoin="round"/>
<path fill-rule="evenodd" clip-rule="evenodd" d="M32.5026 48C31.0306 48 29.8359 49.1947 29.8359 50.6667C29.8359 52.1387 31.0306 53.3333 32.5026 53.3333C33.9746 53.3333 35.1693 52.1387 35.1693 50.6667C35.1693 49.1947 33.9746 48 32.5026 48Z" fill="black"/>
<path d="M41.1995 38.1976C41.682 37.8154 41.9969 37.2353 41.9969 36.578V27.8038C41.9969 26.655 41.0514 25.7199 39.89 25.7199H38.1391C37.8957 25.7199 37.6725 25.5884 37.5562 25.3763L37.1467 24.6254C36.7783 23.9503 36.0683 23.531 35.2925 23.531H30.7037C29.928 23.531 29.2179 23.9503 28.8503 24.6247L28.44 25.3763C28.4169 25.4191 28.3858 25.4563 28.354 25.4927L26.0456 23.2095C25.7631 22.9302 25.3066 22.9302 25.0242 23.2095C24.7418 23.4888 24.7418 23.9403 25.0242 24.2197L26.5418 25.7206H26.107C24.9455 25.7206 24 26.6558 24 27.8045V36.5787C24 37.7275 24.9455 38.6626 26.107 38.6626H39.6263L40.7668 39.7907C40.9077 39.93 41.0926 40 41.2775 40C41.4624 40 41.6473 39.93 41.7882 39.7907C42.0706 39.5114 42.0706 39.0599 41.7882 38.7805L41.1995 38.1976ZM29.7113 26.0557L30.1223 25.3034C30.2378 25.0919 30.461 24.9598 30.7044 24.9598H35.2932C35.5366 24.9598 35.7598 25.0919 35.8761 25.3034L36.2864 26.0549C36.6548 26.7293 37.3655 27.148 38.1405 27.148H39.8914C40.2569 27.148 40.5538 27.4416 40.5538 27.8031V36.5773C40.5538 36.8424 40.3927 37.0681 40.1637 37.171L36.8722 33.9155C37.2052 33.3032 37.3951 32.6038 37.3951 31.8616C37.3951 29.4641 35.4232 27.5137 32.9999 27.5137C32.2487 27.5137 31.5416 27.7016 30.9226 28.031L29.3797 26.505C29.5076 26.3729 29.6202 26.2221 29.7113 26.0557ZM30.8012 29.9327L34.9494 34.0355C34.4279 34.4934 33.7497 34.7806 32.9992 34.7806C31.3718 34.7806 30.0479 33.4711 30.0479 31.8616C30.0471 31.12 30.3375 30.4485 30.8012 29.9327ZM32.0219 29.1204C32.3289 29.0133 32.6546 28.9433 32.9985 28.9433C34.6258 28.9433 35.9491 30.2528 35.9491 31.8623C35.9491 32.2023 35.879 32.5245 35.7699 32.8282L32.0219 29.1204ZM26.1062 37.2331C25.7408 37.2331 25.4439 36.9395 25.4439 36.578V27.8038C25.4439 27.4423 25.7408 27.1487 26.1062 27.1487H27.8571C27.8961 27.1487 27.9322 27.1358 27.9705 27.1337L29.7741 28.9175C29.0496 29.6927 28.6025 30.7257 28.6025 31.8623C28.6025 34.2598 30.5744 36.2101 32.9985 36.2101C34.1477 36.2101 35.1921 35.7679 35.9758 35.0514L38.1817 37.2331H26.1062Z" fill="black"/>
</svg>
