<svg width="57" height="56" viewBox="0 0 57 56" fill="none" xmlns="http://www.w3.org/2000/svg">
<path fill-rule="evenodd" clip-rule="evenodd" d="M42.2503 42.001C40.967 42.001 39.917 40.951 39.917 39.6676C39.917 38.3843 40.967 37.3343 42.2503 37.3343C43.5337 37.3343 44.5837 38.3843 44.5837 39.6676C44.5837 40.951 43.5337 42.001 42.2503 42.001ZM28.6003 17.7576C25.1703 19.8576 21.227 25.2476 19.897 28.1876C19.8037 28.421 19.6637 28.631 19.5003 28.8176C19.4537 28.841 19.4303 28.8643 19.3837 28.8876C19.2203 29.0743 19.0337 29.191 18.8237 29.3076C18.777 29.3076 18.7537 29.3543 18.707 29.3776C18.6837 29.3776 18.637 29.3776 18.6137 29.401C18.357 29.4943 18.077 29.5643 17.797 29.5643H17.7737C17.4703 29.5643 17.1903 29.4943 16.9337 29.3776C16.887 29.3776 16.8637 29.3776 16.817 29.3543C16.7703 29.3543 16.747 29.3076 16.7237 29.2843C16.5137 29.191 16.327 29.051 16.1637 28.8876C16.117 28.8643 16.0703 28.8176 16.047 28.7943C15.8837 28.6076 15.7437 28.3976 15.6503 28.1643C14.9737 26.671 13.5037 24.5476 11.8703 22.751C11.007 21.7943 11.077 20.301 12.0337 19.4376C12.9903 18.5743 14.4603 18.6676 15.3237 19.601C16.2103 20.581 17.0037 21.6076 17.7503 22.6343C19.897 19.391 23.047 15.7043 26.1503 13.791C27.247 13.1143 28.6937 13.4643 29.347 14.561C30.0237 15.6576 29.697 17.081 28.6003 17.7576ZM14.2503 42.001C12.967 42.001 11.917 40.951 11.917 39.6676C11.917 38.3843 12.967 37.3343 14.2503 37.3343C15.5337 37.3343 16.5837 38.3843 16.5837 39.6676C16.5837 40.951 15.5337 42.001 14.2503 42.001ZM53.2403 24.011L46.2403 17.011C45.797 16.591 45.2137 16.3343 44.5837 16.3343H39.917C38.6337 16.3343 37.5837 17.3843 37.5837 18.6676V28.001C37.5837 29.2843 36.5337 30.3343 35.2503 30.3343C33.967 30.3343 32.917 29.2843 32.917 28.001V9.33431C32.917 8.05098 31.867 7.00098 30.5837 7.00098H11.917C8.06699 7.00098 4.91699 10.151 4.91699 14.001V32.6676C4.91699 34.6043 6.13033 36.2843 7.81033 36.9843C7.43699 37.801 7.25033 38.711 7.25033 39.6676C7.25033 43.5176 10.4003 46.6676 14.2503 46.6676C18.1003 46.6676 21.2503 43.5176 21.2503 39.6676C21.2503 38.851 21.1103 38.0576 20.8303 37.3343H35.6703C35.3903 38.0576 35.2503 38.851 35.2503 39.6676C35.2503 43.5176 38.4003 46.6676 42.2503 46.6676C46.1003 46.6676 49.2503 43.5176 49.2503 39.6676C49.2503 38.851 49.1103 38.0576 48.8303 37.3343H51.5837C52.867 37.3343 53.917 36.2843 53.917 35.001V25.6676C53.917 25.0376 53.6603 24.4543 53.2403 24.011Z" fill="#2177F4"/>
</svg>
