<svg width="24" height="26" viewBox="0 0 24 26" fill="none" xmlns="http://www.w3.org/2000/svg">
<mask id="mask0_234_77" style="mask-type:luminance" maskUnits="userSpaceOnUse" x="0" y="1" width="24" height="24">
<path d="M24 1H0V25H24V1Z" fill="white"/>
</mask>
<g mask="url(#mask0_234_77)">
<path d="M17.94 18.94C16.2306 20.243 14.1491 20.9649 12 21C5 21 1 13 1 13C2.24389 10.6819 3.96914 8.65663 6.06 7.06003M9.9 5.24002C10.5883 5.0789 11.2931 4.99836 12 5.00003C19 5.00003 23 13 23 13C22.393 14.1356 21.6691 15.2048 20.84 16.19M14.12 15.12C13.8454 15.4148 13.5141 15.6512 13.1462 15.8151C12.7782 15.9791 12.3809 16.0673 11.9781 16.0744C11.5753 16.0815 11.1752 16.0074 10.8016 15.8565C10.4281 15.7056 10.0887 15.4811 9.80385 15.1962C9.51897 14.9113 9.29439 14.572 9.14351 14.1984C8.99262 13.8249 8.91853 13.4247 8.92563 13.0219C8.93274 12.6191 9.02091 12.2219 9.18488 11.8539C9.34884 11.4859 9.58525 11.1547 9.88 10.88" stroke="#FF4747" stroke-width="2" stroke-linecap="round" stroke-linejoin="round"/>
<path d="M1 2L23 24" stroke="#FF4747" stroke-width="2" stroke-linecap="round" stroke-linejoin="round"/>
</g>
</svg>
