<svg width="21" height="20" viewBox="0 0 21 20" fill="none" xmlns="http://www.w3.org/2000/svg">
<g clip-path="url(#clip0_721_27914)">
<path d="M20.25 10C20.25 4.4772 15.7728 0 10.25 0C4.7272 0 0.25 4.4772 0.25 10C0.25 14.6896 3.4788 18.6248 7.8344 19.7056V13.056H5.7724V10H7.8344V8.6832C7.8344 5.2796 9.3748 3.702 12.7164 3.702C13.35 3.702 14.4432 3.8264 14.8904 3.9504V6.7204C14.6544 6.6956 14.2444 6.6832 13.7352 6.6832C12.0956 6.6832 11.462 7.3044 11.462 8.9192V10H14.7284L14.1672 13.056H11.462V19.9268C16.4136 19.3288 20.2504 15.1128 20.2504 10H20.25Z" fill="#0866FF"/>
<path d="M14.1663 13.0561L14.7275 10.0001H11.4611V8.91935C11.4611 7.30455 12.0947 6.68335 13.7343 6.68335C14.2435 6.68335 14.6535 6.69575 14.8895 6.72055V3.95055C14.4423 3.82615 13.3491 3.70215 12.7155 3.70215C9.37388 3.70215 7.83348 5.27975 7.83348 8.68335V10.0001H5.77148V13.0561H7.83348V19.7057C8.60708 19.8977 9.41628 20.0001 10.2491 20.0001C10.6591 20.0001 11.0635 19.9749 11.4607 19.9269V13.0561H14.1659H14.1663Z" fill="white"/>
</g>
<defs>
<clipPath id="clip0_721_27914">
<rect width="20" height="20" fill="white" transform="translate(0.25)"/>
</clipPath>
</defs>
</svg>
