<svg width="24" height="24" viewBox="0 0 24 24" fill="none" xmlns="http://www.w3.org/2000/svg">
<path d="M4.892 9.61399C4.892 9.21199 5.215 8.88599 5.614 8.88599H9.47C9.87 8.88599 10.193 9.21199 10.193 9.61399C10.1934 9.70933 10.175 9.80381 10.1389 9.89204C10.1028 9.98028 10.0496 10.0605 9.98249 10.1282C9.91535 10.1959 9.83554 10.2497 9.7476 10.2866C9.65967 10.3234 9.56534 10.3426 9.47 10.343H5.614C5.42163 10.3419 5.23754 10.2646 5.10217 10.1279C4.96679 9.99119 4.89121 9.80636 4.892 9.61399Z" fill="#0B1839"/>
<path fill-rule="evenodd" clip-rule="evenodd" d="M21.188 10.004C21.1253 10.0006 21.0587 9.99932 20.988 9.99998H18.215C15.944 9.99998 14 11.736 14 14C14 16.264 15.944 18 18.215 18H20.988C21.0587 18.0007 21.1253 17.9993 21.188 17.996C22.111 17.94 22.927 17.239 22.996 16.259C23 16.195 23 16.126 23 16.062V11.938C23 11.874 23 11.805 22.996 11.741C22.927 10.761 22.111 10.061 21.188 10.004ZM17.971 15.067C18.555 15.067 19.029 14.589 19.029 14C19.029 13.41 18.555 12.933 17.971 12.933C17.387 12.933 16.911 13.411 16.911 14C16.911 14.59 17.386 15.067 17.971 15.067Z" fill="#0B1839"/>
<path opacity="0.5" d="M21.14 10.002C21.14 8.821 21.096 7.554 20.342 6.647C20.2681 6.55834 20.1903 6.47293 20.109 6.391C19.36 5.643 18.411 5.311 17.239 5.153C16.099 5 14.644 5 12.806 5H10.694C8.856 5 7.4 5 6.26 5.153C5.088 5.311 4.139 5.643 3.39 6.391C2.642 7.14 2.31 8.089 2.152 9.261C2 10.401 2 11.856 2 13.694V13.806C2 15.644 2 17.1 2.153 18.239C2.311 19.411 2.643 20.36 3.391 21.109C4.14 21.857 5.089 22.189 6.261 22.347C7.401 22.5 8.856 22.5 10.694 22.5H12.806C14.644 22.5 16.1 22.5 17.239 22.347C18.411 22.189 19.36 21.857 20.109 21.109C20.3123 20.9037 20.4877 20.6837 20.635 20.449C21.085 19.729 21.139 18.847 21.139 17.999L20.989 18H18.215C15.944 18 14 16.264 14 14C14 11.736 15.944 10 18.215 10H20.988C21.0407 10 21.092 10.0007 21.14 10.002Z" fill="#0B1839"/>
<path d="M10.101 2.57198L8 3.99198L6.267 5.15198C7.405 4.99998 8.859 4.99998 10.694 4.99998H12.806C14.644 4.99998 16.1 4.99998 17.239 5.15298C17.4683 5.18298 17.689 5.22098 17.901 5.26698L16 3.99998L13.887 2.57198C13.3261 2.19918 12.6675 2.00031 11.994 2.00031C11.3205 2.00031 10.6619 2.19918 10.101 2.57198Z" fill="#0B1839"/>
</svg>
