<svg width="105" height="24" viewBox="0 0 105 24" fill="none" xmlns="http://www.w3.org/2000/svg">
<path d="M24.0008 12.2665C24.0008 11.4499 23.9327 10.6332 23.7967 9.83318H12.249V14.4499H18.8647C18.5926 15.9332 17.7082 17.2666 16.4157 18.0999V21.0999H20.3613C22.6742 19.0166 24.0008 15.9332 24.0008 12.2665Z" fill="#4285F4"/>
<path d="M12.2489 24C15.5482 24 18.3374 22.9333 20.3612 21.1L16.4156 18.1C15.3101 18.8333 13.8986 19.25 12.2489 19.25C9.0516 19.25 6.34751 17.1333 5.37812 14.2999H1.31348V17.4C3.38831 21.45 7.62303 24 12.2489 24Z" fill="#34A853"/>
<path d="M5.37928 14.2999C4.869 12.8166 4.869 11.1999 5.37928 9.69991V6.61655H1.31399C-0.437997 9.99991 -0.437997 13.9999 1.31399 17.3833L5.37928 14.2999Z" fill="#FBBC04"/>
<path d="M12.2489 4.74982C14.0006 4.71649 15.6843 5.36649 16.9428 6.54984L20.4462 3.11647C18.2183 1.08312 15.2931 -0.0335543 12.2489 -0.000220689C7.62303 -0.000220689 3.38831 2.56647 1.31348 6.6165L5.37812 9.71653C6.34751 6.86651 9.0516 4.74982 12.2489 4.74982Z" fill="#EA4335"/>
<path d="M33.2922 18.9995V5.90862H38.2013C39.2069 5.90862 40.0507 6.08333 40.7325 6.43277C41.4186 6.7822 41.9363 7.27225 42.2858 7.90294C42.6395 8.52936 42.8163 9.26018 42.8163 10.0954C42.8163 10.9349 42.6373 11.6636 42.2794 12.2815C41.9257 12.8951 41.4037 13.3703 40.7133 13.7069C40.023 14.0393 39.175 14.2055 38.1693 14.2055H34.6729V12.2367H37.8497C38.4378 12.2367 38.9193 12.1558 39.2943 11.9938C39.6693 11.8277 39.9463 11.5869 40.1253 11.2715C40.3085 10.9519 40.4001 10.5599 40.4001 10.0954C40.4001 9.63092 40.3085 9.23461 40.1253 8.90649C39.942 8.5741 39.6629 8.32268 39.2879 8.15223C38.9129 7.97751 38.4292 7.89015 37.8369 7.89015H35.6636V18.9995H33.2922ZM40.055 13.0677L43.2957 18.9995H40.6494L37.4662 13.0677H40.055ZM49.1029 19.1913C48.1185 19.1913 47.2684 18.9867 46.5525 18.5777C45.8408 18.1643 45.2932 17.5805 44.9097 16.8262C44.5262 16.0677 44.3344 15.175 44.3344 14.148C44.3344 13.138 44.5262 12.2517 44.9097 11.4889C45.2975 10.7218 45.8387 10.1252 46.5333 9.6991C47.2279 9.2687 48.0439 9.0535 48.9814 9.0535C49.5866 9.0535 50.1576 9.15152 50.6945 9.34754C51.2357 9.5393 51.713 9.83759 52.1263 10.2424C52.5439 10.6473 52.8721 11.1629 53.1107 11.7893C53.3493 12.4115 53.4687 13.1529 53.4687 14.0137V14.7232H45.4211V13.1636H51.2506C51.2464 12.7204 51.1505 12.3262 50.963 11.9811C50.7755 11.6316 50.5134 11.3568 50.1768 11.1565C49.8444 10.9562 49.4566 10.8561 49.0134 10.8561C48.5404 10.8561 48.1249 10.9711 47.767 11.2012C47.409 11.4271 47.1299 11.7254 46.9296 12.0961C46.7336 12.4626 46.6334 12.8653 46.6292 13.3042V14.6657C46.6292 15.2367 46.7336 15.7268 46.9424 16.1359C47.1512 16.5407 47.4431 16.8518 47.8181 17.0691C48.1931 17.2822 48.632 17.3887 49.1349 17.3887C49.4715 17.3887 49.7762 17.3419 50.0489 17.2481C50.3216 17.1501 50.5581 17.0073 50.7584 16.8198C50.9587 16.6323 51.11 16.4001 51.2123 16.1231L53.3728 16.366C53.2364 16.937 52.9765 17.4356 52.593 17.8617C52.2137 18.2836 51.7279 18.6117 51.1356 18.8461C50.5432 19.0762 49.8657 19.1913 49.1029 19.1913ZM63.9149 9.18134L60.4184 18.9995H57.8616L54.3651 9.18134H56.8325L59.0889 16.4747H59.1911L61.4539 9.18134H63.9149ZM65.5161 18.9995V9.18134H67.83V18.9995H65.5161ZM66.6794 7.78788C66.3129 7.78788 65.9976 7.66643 65.7334 7.42353C65.4692 7.17637 65.3371 6.88021 65.3371 6.53504C65.3371 6.18561 65.4692 5.88944 65.7334 5.64654C65.9976 5.39938 66.3129 5.2758 66.6794 5.2758C67.0502 5.2758 67.3655 5.39938 67.6254 5.64654C67.8896 5.88944 68.0218 6.18561 68.0218 6.53504C68.0218 6.88021 67.8896 7.17637 67.6254 7.42353C67.3655 7.66643 67.0502 7.78788 66.6794 7.78788ZM74.556 19.1913C73.5716 19.1913 72.7215 18.9867 72.0056 18.5777C71.2939 18.1643 70.7464 17.5805 70.3628 16.8262C69.9793 16.0677 69.7876 15.175 69.7876 14.148C69.7876 13.138 69.9793 12.2517 70.3628 11.4889C70.7506 10.7218 71.2918 10.1252 71.9864 9.6991C72.681 9.2687 73.4971 9.0535 74.4346 9.0535C75.0397 9.0535 75.6107 9.15152 76.1476 9.34754C76.6888 9.5393 77.1661 9.83759 77.5795 10.2424C77.9971 10.6473 78.3252 11.1629 78.5638 11.7893C78.8025 12.4115 78.9218 13.1529 78.9218 14.0137V14.7232H70.8742V13.1636H76.7037C76.6995 12.7204 76.6036 12.3262 76.4161 11.9811C76.2286 11.6316 75.9665 11.3568 75.6299 11.1565C75.2975 10.9562 74.9097 10.8561 74.4665 10.8561C73.9935 10.8561 73.578 10.9711 73.2201 11.2012C72.8621 11.4271 72.583 11.7254 72.3827 12.0961C72.1867 12.4626 72.0866 12.8653 72.0823 13.3042V14.6657C72.0823 15.2367 72.1867 15.7268 72.3955 16.1359C72.6043 16.5407 72.8962 16.8518 73.2712 17.0691C73.6462 17.2822 74.0851 17.3887 74.588 17.3887C74.9246 17.3887 75.2293 17.3419 75.502 17.2481C75.7748 17.1501 76.0113 17.0073 76.2116 16.8198C76.4118 16.6323 76.5631 16.4001 76.6654 16.1231L78.8259 16.366C78.6895 16.937 78.4296 17.4356 78.0461 17.8617C77.6668 18.2836 77.181 18.6117 76.5887 18.8461C75.9964 19.0762 75.3188 19.1913 74.556 19.1913ZM82.8529 18.9995L80.0787 9.18134H82.4374L84.1633 16.0848H84.2528L86.017 9.18134H88.3501L90.1143 16.0464H90.2101L91.9104 9.18134H94.2755L91.4949 18.9995H89.0851L87.2442 12.3646H87.11L85.2691 18.9995H82.8529ZM103.651 11.7765L101.542 12.0066C101.482 11.7936 101.378 11.5933 101.228 11.4058C101.084 11.2183 100.888 11.067 100.64 10.9519C100.393 10.8369 100.091 10.7794 99.7327 10.7794C99.2512 10.7794 98.8463 10.8838 98.5182 11.0926C98.1943 11.3014 98.0345 11.572 98.0388 11.9044C98.0345 12.1899 98.1389 12.4221 98.352 12.6011C98.5693 12.7801 98.9273 12.9271 99.4259 13.0421L101.101 13.4001C102.03 13.6004 102.72 13.9179 103.172 14.3525C103.628 14.7872 103.858 15.3561 103.862 16.0592C103.858 16.6771 103.677 17.2225 103.319 17.6955C102.965 18.1643 102.473 18.5308 101.842 18.795C101.211 19.0592 100.487 19.1913 99.6688 19.1913C98.4671 19.1913 97.4997 18.9399 96.7668 18.437C96.0338 17.9299 95.597 17.2247 95.4564 16.3213L97.7128 16.1039C97.8151 16.5471 98.0324 16.8816 98.3648 17.1075C98.6972 17.3333 99.1297 17.4463 99.6624 17.4463C100.212 17.4463 100.653 17.3333 100.986 17.1075C101.322 16.8816 101.491 16.6025 101.491 16.2701C101.491 15.9889 101.382 15.7566 101.165 15.5734C100.951 15.3902 100.619 15.2495 100.167 15.1515L98.4926 14.8C97.5509 14.6039 96.8541 14.2737 96.4024 13.8092C95.9507 13.3404 95.727 12.7481 95.7313 12.0322C95.727 11.4271 95.8911 10.9029 96.2235 10.4598C96.5601 10.0123 97.0267 9.66714 97.6233 9.42424C98.2242 9.17708 98.9166 9.0535 99.7007 9.0535C100.851 9.0535 101.757 9.29853 102.417 9.78859C103.082 10.2786 103.493 10.9413 103.651 11.7765Z" fill="black"/>
</svg>
