<svg width="32" height="32" viewBox="0 0 32 32" fill="none" xmlns="http://www.w3.org/2000/svg">
<path fill-rule="evenodd" clip-rule="evenodd" d="M22.28 19.6133C20.5467 21.3333 18.28 22.2 16 22.2C13.72 22.2 11.4533 21.3333 9.72 19.6133C9.2 19.0933 9.2 18.24 9.72 17.72C10.24 17.2 11.0933 17.2 11.6133 17.72C14.0267 20.1467 17.9733 20.1467 20.3867 17.72C20.9067 17.2 21.76 17.2 22.28 17.72C22.8 18.24 22.8 19.0933 22.28 19.6133ZM27.7733 12.3733C27.5467 11.5067 27.0933 10.6 26.1733 9.79999L19.5067 3.97332C17.5067 2.21332 14.4933 2.21332 12.4933 3.97332L5.82667 9.79999C4 11.4 4 13.44 4 14.6667V21.3333C4 26.0667 5.93333 28 10.6667 28H21.3333C26.0667 28 28 26.0667 28 21.3333V14.6667C28 14.0533 28 13.24 27.7733 12.3733Z" fill="#2177F4"/>
</svg>
