<svg width="16" height="16" viewBox="0 0 16 16" fill="none" xmlns="http://www.w3.org/2000/svg">
<path d="M15.3327 12.5835V7.49787C15.3327 7.00806 15.3323 6.76302 15.2727 6.5351C15.2199 6.33312 15.1333 6.14198 15.016 5.96925C14.8837 5.77435 14.6998 5.61272 14.3312 5.29017L9.93115 1.44017C9.24676 0.841329 8.90456 0.542058 8.51945 0.42817C8.18011 0.327817 7.81841 0.327817 7.47907 0.42817C7.09424 0.541972 6.75254 0.84096 6.06918 1.4389L1.66772 5.29017C1.2991 5.61272 1.11522 5.77435 0.98291 5.96925C0.865658 6.14198 0.778352 6.33312 0.725573 6.5351C0.666016 6.76303 0.666016 7.00806 0.666016 7.49787V12.5835C0.666016 13.4377 0.666016 13.8647 0.80557 14.2016C0.991642 14.6508 1.34831 15.0081 1.79753 15.1942C2.13444 15.3338 2.56155 15.3338 3.41578 15.3338C4.27001 15.3338 4.69759 15.3338 5.0345 15.1942C5.48372 15.0081 5.84029 14.6509 6.02637 14.2017C6.16592 13.8647 6.16602 13.4376 6.16602 12.5834V11.6667C6.16602 10.6542 6.98683 9.8334 7.99935 9.8334C9.01187 9.8334 9.83268 10.6542 9.83268 11.6667V12.5834C9.83268 13.4376 9.83268 13.8647 9.97224 14.2017C10.1583 14.6509 10.515 15.0081 10.9642 15.1942C11.3011 15.3338 11.7282 15.3338 12.5824 15.3338C13.4367 15.3338 13.8643 15.3338 14.2012 15.1942C14.6504 15.0081 15.007 14.6508 15.193 14.2016C15.3326 13.8647 15.3327 13.4377 15.3327 12.5835Z" fill="#0B161F"/>
</svg>
