<svg width="24" height="24" viewBox="0 0 24 24" fill="none" xmlns="http://www.w3.org/2000/svg">
<path fill-rule="evenodd" clip-rule="evenodd" d="M12 12.99C10.35 12.99 9 11.65 9 9.98999C9 8.33999 10.35 6.98999 12 6.98999C13.65 6.98999 15 8.33999 15 9.98999C15 11.65 13.65 12.99 12 12.99ZM12 1.98999C7.59 1.98999 4 5.57999 4 9.98999C4 16.43 11.12 21.59 11.42 21.81C11.59 21.93 11.8 21.99 12 21.99C12.2 21.99 12.41 21.93 12.58 21.81C12.88 21.59 20 16.43 20 9.98999C20 5.57999 16.41 1.98999 12 1.98999Z" fill="#2177F4"/>
</svg>
