<svg width="120" height="59" viewBox="0 0 120 59" fill="none" xmlns="http://www.w3.org/2000/svg">
<path d="M48.4418 32.7307C46.9977 32.7307 45.6524 32.0836 44.7498 30.9596C43.8472 29.8323 43.5101 28.3779 43.8234 26.9713L46.2143 16.2393C46.5617 14.6862 47.4371 13.2796 48.6802 12.2851C49.9234 11.2872 51.4833 10.7388 53.0772 10.7388H82.2011C83.6043 10.7388 84.9087 11.3655 85.7875 12.4588C86.6662 13.5521 86.9932 14.9655 86.6866 16.3347L84.2855 27.1041C83.9313 28.6947 83.0355 30.132 81.7617 31.1538C80.4913 32.1721 78.8905 32.7341 77.2625 32.7341H48.4418V32.7307Z" fill="black"/>
<path d="M82.1974 11.3485H53.0736C50.0662 11.3485 47.4641 13.4363 46.8102 16.3688L44.4192 27.1008C43.847 29.6756 45.8054 32.1176 48.4416 32.1176H77.2623C80.3446 32.1176 83.0149 29.9753 83.6858 26.9679L86.087 16.1985C86.6387 13.7088 84.7451 11.3485 82.1974 11.3485Z" fill="#2177F4"/>
<path d="M76.5203 16.3722L73.5469 17.2304H67.2392L68.8127 16.069H51.5585C51.5585 16.069 48.9291 18.4974 45.6629 21.5151L44.4163 27.1041C43.8441 29.679 45.8025 32.121 48.4387 32.121H68.0907C70.1717 30.2001 71.6499 28.8411 71.7384 28.7662L70.5497 28.4018C75.6382 23.7016 81.6462 18.1534 81.8267 18.0036L76.5203 16.3722Z" fill="black"/>
<path d="M25.6463 37.6182H35.227L34.4641 39.7945H25.4181C25.1899 39.7945 24.9753 39.8797 24.7743 40.0432C24.5734 40.2101 24.4474 40.4076 24.3963 40.6324L24.3895 40.663C24.3384 40.8878 24.3759 41.082 24.5019 41.2454C24.6279 41.4089 24.805 41.4873 25.0332 41.4873H31.9948C32.3831 41.4873 32.7305 41.5486 33.0405 41.6712C33.3504 41.7938 33.6024 41.9675 33.8 42.1923C33.9975 42.4171 34.1303 42.6861 34.2019 43.0029C34.2734 43.3162 34.2666 43.6636 34.1814 44.0485L34.0929 44.43C34.0043 44.8114 33.8511 45.1724 33.6331 45.5028C33.4117 45.8366 33.1494 46.1295 32.8395 46.3781C32.5296 46.6268 32.1924 46.8243 31.828 46.9674C31.4635 47.1104 31.0889 47.1819 30.7006 47.1819H20.7588L21.5421 44.9885H30.9152C31.1536 44.9885 31.3716 44.9068 31.5725 44.7467C31.7735 44.5832 31.8995 44.3925 31.9506 44.1643L31.9574 44.1336C32.0085 43.9089 31.971 43.7147 31.845 43.5512C31.719 43.3878 31.5351 43.3094 31.2966 43.3094H24.3486C23.9706 43.3094 23.63 43.2481 23.32 43.1255C23.0101 43.0029 22.7546 42.8292 22.5537 42.6044C22.3527 42.3796 22.2131 42.1105 22.1348 41.7938C22.0564 41.4805 22.0632 41.1331 22.1484 40.7482L22.2369 40.3667C22.3255 39.9853 22.4788 39.6276 22.6967 39.2939C22.9147 38.9601 23.1804 38.6672 23.4903 38.4186C23.8003 38.1699 24.1408 37.9724 24.5087 37.8293C24.8799 37.6897 25.258 37.6182 25.6463 37.6182Z" fill="black"/>
<path d="M38.3803 39.7094L36.6774 47.1853H34.6543L36.3572 39.7094H38.3803ZM37.3177 35.4861H39.3408L38.7652 38.0166H36.7421L37.3177 35.4861Z" fill="black"/>
<path d="M41.5166 38.3981L41.8606 36.8825H43.8837L43.5397 38.3981H49.105L48.3829 40.4008H43.0867L42.4158 43.3435C42.2693 43.9906 42.3068 44.4606 42.535 44.7501C42.7598 45.0396 43.2025 45.1826 43.8565 45.1826H47.6813L47.4804 47.1853H43.3149C42.1161 47.1853 41.2578 46.8584 40.7435 46.1976C40.2292 45.5403 40.1066 44.6173 40.3757 43.432L41.0671 40.4008H39.5957L39.7967 38.3981H41.5166Z" fill="black"/>
<path d="M52.021 39.7094L50.318 47.1853H48.2949L49.9979 39.7094H52.021ZM50.9583 35.4861H52.9814L52.4058 38.0166H50.3827L50.9583 35.4861Z" fill="black"/>
<path d="M57.7154 38.3538H60.4367C60.9714 38.3538 61.4619 38.4628 61.908 38.6842C62.3542 38.9056 62.722 39.1985 63.0081 39.5663C63.2976 39.9342 63.4952 40.3633 63.6076 40.8538C63.72 41.3442 63.7132 41.8585 63.5906 42.4L63.4816 42.8871C63.359 43.4252 63.1376 43.9565 62.8208 44.4776C62.5041 44.9987 62.1226 45.4551 61.673 45.8536C61.2269 46.2521 60.7228 46.5723 60.1676 46.8175C59.6125 47.0627 59.0335 47.1853 58.4408 47.1853H55.7025C55.1065 47.1853 54.5717 47.0729 54.0915 46.8481C53.6113 46.6233 53.2196 46.3168 52.9165 45.9285C52.6133 45.5403 52.4056 45.0839 52.2966 44.5594C52.1876 44.0349 52.2012 43.4763 52.3341 42.8905L52.3886 42.6555C52.5214 42.0663 52.7632 41.5111 53.1106 40.9866C53.458 40.4621 53.8701 40.0057 54.3504 39.6174C54.8306 39.2291 55.3619 38.9226 55.9443 38.6978C56.5301 38.4662 57.1193 38.3538 57.7154 38.3538ZM54.4117 42.7406L54.398 42.7985C54.3231 43.1221 54.3163 43.4286 54.3742 43.7181C54.4321 44.0076 54.5445 44.2596 54.7148 44.4776C54.8851 44.6922 55.0996 44.8625 55.3653 44.9851C55.631 45.1077 55.9273 45.169 56.2542 45.169H58.5294C58.887 45.169 59.2276 45.1077 59.5546 44.9851C59.8815 44.8625 60.171 44.6922 60.4299 44.4776C60.6887 44.2631 60.9067 44.0076 61.0872 43.7181C61.2677 43.4286 61.3937 43.1221 61.4687 42.7985L61.4823 42.7406C61.5572 42.4171 61.564 42.1105 61.5061 41.821C61.4482 41.5315 61.3358 41.2795 61.1656 41.0615C60.9953 40.8469 60.7807 40.6766 60.515 40.554C60.2494 40.4314 59.9531 40.3701 59.6261 40.3701H57.3509C57.024 40.3701 56.7004 40.4314 56.3803 40.554C56.0601 40.6766 55.7672 40.8469 55.4981 41.0615C55.2325 41.2761 55.0009 41.5315 54.8136 41.821C54.616 42.1105 54.4832 42.4171 54.4117 42.7406Z" fill="black"/>
<path d="M69.8036 39.6923L64.3916 39.7366L64.6062 37.6181H78.1446L77.3953 39.7366L72.0038 39.6923L70.2974 47.1819H68.0972L69.8036 39.6923Z" fill="black"/>
<path d="M54.7494 14.7578C54.1875 14.7578 53.6425 14.8633 53.1214 15.0711C52.5969 15.2789 52.1235 15.5684 51.6977 15.9328C51.272 16.3006 50.9144 16.7264 50.6283 17.2134C50.3422 17.7004 50.1549 18.225 50.0663 18.7869L49.9778 19.3489C49.8892 19.9109 49.9165 20.4184 50.0595 20.8782C50.2026 21.3379 50.4342 21.733 50.7475 22.0634C51.0642 22.3938 51.4525 22.6492 51.9123 22.8297C52.3755 23.0102 52.8796 23.0988 53.4279 23.0988H63.4345C63.7819 23.0988 64.0543 23.218 64.2553 23.453C64.4562 23.6914 64.5312 23.9741 64.4767 24.3045L64.4699 24.3488C64.4188 24.6791 64.2553 24.9618 63.9794 25.2002C63.7035 25.4386 63.3936 25.5544 63.0462 25.5544H49.3817L48.6631 28.7662H62.9508C63.5128 28.7662 64.0509 28.6606 64.5686 28.4529C65.0829 28.2451 65.5563 27.9556 65.9821 27.5912C66.4078 27.2233 66.762 26.7976 67.0515 26.3106C67.3376 25.8235 67.5249 25.299 67.6135 24.737L67.7021 24.1751C67.7906 23.6131 67.7668 23.1056 67.6305 22.6458C67.4943 22.186 67.2729 21.7909 66.963 21.4606C66.653 21.1302 66.2682 20.8747 65.8084 20.6942C65.3452 20.5137 64.8343 20.4252 64.2723 20.4252H54.2453C53.915 20.4252 53.6459 20.306 53.4484 20.071C53.2474 19.8325 53.1725 19.5498 53.227 19.2195L53.2338 19.1752C53.2849 18.8448 53.4518 18.5587 53.7277 18.3135C54.0035 18.0683 54.3067 17.9457 54.6404 17.9457L71.016 17.9797L68.5399 28.7628H71.7414L74.2175 17.9797L81.8331 18.0002L82.5381 14.7578H54.7494Z" fill="white"/>
<path d="M81.9483 38.3538H86.1887C86.5463 38.3538 86.8664 38.4185 87.1491 38.5514C87.4318 38.6842 87.6634 38.8647 87.8439 39.0963C88.0244 39.3279 88.1471 39.5936 88.2118 39.8967C88.2765 40.1998 88.2697 40.5302 88.1879 40.8844L87.5033 43.6364H78.6071C78.5765 43.7726 78.5867 43.9293 78.6412 44.1064C78.6957 44.2835 78.7877 44.4504 78.9137 44.607C79.0431 44.7637 79.21 44.8966 79.4177 45.0055C79.6255 45.1145 79.8639 45.169 80.133 45.169H86.8733L86.6689 47.1853H79.9457C79.3496 47.1853 78.8149 47.0729 78.3347 46.8481C77.8544 46.6233 77.4628 46.3168 77.1596 45.9285C76.8565 45.5403 76.6487 45.0839 76.5398 44.5594C76.4308 44.0349 76.4444 43.4763 76.5772 42.8905L76.6317 42.6555C76.7645 42.0663 77.0064 41.5111 77.3538 40.9866C77.7012 40.4621 78.1133 40.0057 78.5935 39.6174C79.0737 39.2291 79.6051 38.9226 80.1875 38.6978C80.7631 38.4662 81.3523 38.3538 81.9483 38.3538ZM79.0329 42.0186H85.8753L86.1001 41.0309C86.141 40.8435 86.1137 40.6869 86.015 40.5608C85.9162 40.4348 85.7697 40.3701 85.5824 40.3701H81.5805C81.3421 40.3701 81.1003 40.4008 80.8516 40.4655C80.603 40.5302 80.368 40.629 80.1466 40.7584C79.9218 40.8912 79.7175 41.0615 79.5267 41.2659C79.3326 41.4736 79.1691 41.7257 79.0329 42.0186Z" fill="black"/>
<path d="M93.9849 38.3538H100.752L100.041 40.3701H93.6137C93.2867 40.3701 92.9632 40.4314 92.643 40.554C92.3229 40.6766 92.0299 40.8469 91.7609 41.0615C91.4952 41.2761 91.2636 41.5315 91.0763 41.821C90.8856 42.1105 90.7561 42.4171 90.6812 42.7406L90.6676 42.7985C90.5927 43.1221 90.5858 43.4286 90.6437 43.7181C90.7016 44.0076 90.814 44.2596 90.9843 44.4776C91.1546 44.6922 91.3692 44.8625 91.6349 44.9851C91.9005 45.1077 92.1968 45.169 92.5238 45.169H98.9507L98.7464 47.1853H91.9789C91.3828 47.1853 90.8481 47.0729 90.3679 46.8481C89.8876 46.6233 89.496 46.3168 89.1928 45.9285C88.8897 45.5403 88.682 45.0839 88.573 44.5594C88.464 44.0349 88.4776 43.4763 88.6104 42.8905L88.6649 42.6555C88.7978 42.0663 89.0396 41.5111 89.387 40.9866C89.7344 40.4621 90.1465 40.0057 90.6267 39.6174C91.1069 39.2291 91.6383 38.9226 92.2207 38.6978C92.7997 38.4662 93.3889 38.3538 93.9849 38.3538Z" fill="black"/>
<path d="M102.143 36.8825H104.166L103.526 39.6923H109.776C110.164 39.6923 110.511 39.7673 110.818 39.9137C111.128 40.0602 111.38 40.2611 111.574 40.5098C111.772 40.7584 111.901 41.0547 111.969 41.3919C112.037 41.7291 112.027 42.0901 111.938 42.475L110.866 47.1853H108.842L109.881 42.6214C109.939 42.366 109.898 42.1514 109.762 41.9743C109.626 41.7972 109.425 41.7086 109.169 41.7086H103.069L101.823 47.1819H99.7998L102.143 36.8825Z" fill="black"/>
<path d="M17.5502 38.8102L17.1449 39.6855H12.4516L12.2915 40.3667H15.5987L15.3024 41.1024H12.1178L11.9612 41.7767H16.6545L16.6511 42.6589H10.7861L11.6853 38.8102H17.5502Z" fill="black"/>
<path d="M17.5638 41.1535L18.5413 38.5241H19.4268L18.5379 40.9116C18.4902 41.0411 18.4596 41.1637 18.4493 41.2795C18.4391 41.3953 18.4493 41.4941 18.4834 41.5792C18.5175 41.6643 18.5754 41.7325 18.6571 41.7836C18.7423 41.8312 18.8546 41.8585 18.9977 41.8585H19.5324L19.3451 42.6623H18.6639C18.1394 42.6623 17.7784 42.5294 17.5877 42.2672C17.3969 41.9981 17.3867 41.6303 17.5638 41.1535Z" fill="black"/>
</svg>
