<svg width="145" height="70" viewBox="0 0 145 70" fill="none" xmlns="http://www.w3.org/2000/svg">
<path d="M58.3436 39.4209C56.6044 39.4209 54.9841 38.6416 53.8971 37.2879C52.8101 35.9302 52.404 34.1786 52.7814 32.4845L55.6609 19.5592C56.0793 17.6887 57.1335 15.9946 58.6308 14.7969C60.128 13.595 62.0067 12.9346 63.9264 12.9346H99.0023C100.692 12.9346 102.263 13.6893 103.322 15.0061C104.38 16.3228 104.774 18.0251 104.405 19.6741L101.513 32.6445C101.086 34.5601 100.007 36.2912 98.4731 37.5217C96.9431 38.7482 95.0152 39.425 93.0544 39.425H58.3436V39.4209Z" fill="white"/>
<path d="M98.9982 13.6689H63.9223C60.3003 13.6689 57.1664 16.1834 56.3788 19.7152L53.4992 32.6405C52.8101 35.7416 55.1687 38.6827 58.3436 38.6827H93.0544C96.7667 38.6827 99.9827 36.1026 100.791 32.4805L103.683 19.5101C104.347 16.5116 102.066 13.6689 98.9982 13.6689Z" fill="#2177F4"/>
<path d="M92.1604 19.7191L88.5794 20.7528H80.9826L82.8777 19.354H62.0971C62.0971 19.354 58.9304 22.2787 54.9966 25.913L53.4953 32.6444C52.8062 35.7454 55.1648 38.6866 58.3397 38.6866H82.0081C84.5144 36.373 86.2946 34.7364 86.4013 34.6461L84.9697 34.2072C91.098 28.5465 98.3339 21.8644 98.5513 21.6839L92.1604 19.7191Z" fill="black"/>
<path d="M30.8902 45.3066H42.429L41.5102 47.9278H30.6154C30.3406 47.9278 30.0821 48.0303 29.8401 48.2272C29.5981 48.4282 29.4463 48.6661 29.3848 48.9369L29.3766 48.9738C29.3151 49.2445 29.3602 49.4783 29.512 49.6752C29.6637 49.8721 29.877 49.9665 30.1519 49.9665H38.5363C39.0039 49.9665 39.4223 50.0403 39.7956 50.188C40.1689 50.3356 40.4724 50.5448 40.7103 50.8156C40.9482 51.0863 41.1082 51.4104 41.1944 51.7918C41.2805 52.1692 41.2723 52.5876 41.1697 53.0511L41.0631 53.5106C40.9564 53.97 40.7719 54.4048 40.5093 54.8027C40.2427 55.2047 39.9268 55.5574 39.5536 55.8569C39.1803 56.1563 38.7742 56.3942 38.3353 56.5665C37.8964 56.7388 37.4452 56.825 36.9775 56.825H25.0039L25.9474 54.1833H37.236C37.5231 54.1833 37.7856 54.0848 38.0276 53.8921C38.2697 53.6952 38.4214 53.4654 38.483 53.1906L38.4912 53.1537C38.5527 52.883 38.5076 52.6492 38.3558 52.4523C38.204 52.2554 37.9825 52.161 37.6954 52.161H29.3274C28.8721 52.161 28.4619 52.0872 28.0886 51.9395C27.7153 51.7918 27.4077 51.5826 27.1656 51.3119C26.9236 51.0412 26.7554 50.7171 26.6611 50.3356C26.5668 49.9583 26.575 49.5399 26.6775 49.0763L26.7842 48.6169C26.8908 48.1575 27.0754 47.7268 27.3379 47.3248C27.6005 46.9228 27.9204 46.57 28.2937 46.2706C28.667 45.9712 29.0772 45.7332 29.5202 45.561C29.9673 45.3928 30.4226 45.3066 30.8902 45.3066Z" fill="white"/>
<path d="M46.2278 47.8257L44.1768 56.8295H41.7402L43.7912 47.8257H46.2278ZM44.948 42.7393H47.3845L46.6913 45.787H44.2547L44.948 42.7393Z" fill="white"/>
<path d="M50.0049 46.2463L50.4192 44.4209H52.8558L52.4415 46.2463H59.1441L58.2745 48.6582H51.8959L51.0878 52.2023C50.9114 52.9817 50.9566 53.5478 51.2314 53.8964C51.5021 54.2451 52.0354 54.4174 52.823 54.4174H57.4295L57.1875 56.8293H52.1708C50.7269 56.8293 49.6932 56.4355 49.0738 55.6398C48.4544 54.8481 48.3067 53.7365 48.6308 52.309L49.4635 48.6582H47.6914L47.9334 46.2463H50.0049Z" fill="white"/>
<path d="M62.6555 47.8257L60.6045 56.8295H58.168L60.219 47.8257H62.6555ZM61.3757 42.7393H63.8123L63.119 45.787H60.6825L61.3757 42.7393Z" fill="white"/>
<path d="M69.5145 46.1934H72.792C73.436 46.1934 74.0266 46.3246 74.564 46.5913C75.1014 46.8579 75.5444 47.2106 75.8889 47.6537C76.2376 48.0967 76.4755 48.6135 76.6109 49.2042C76.7462 49.7949 76.738 50.4143 76.5904 51.0665L76.4591 51.6531C76.3114 52.3012 76.0448 52.9411 75.6633 53.5687C75.2818 54.1963 74.8224 54.746 74.281 55.2259C73.7436 55.7058 73.1365 56.0914 72.4679 56.3867C71.7993 56.6821 71.1019 56.8298 70.3882 56.8298H67.0902C66.3724 56.8298 65.7284 56.6944 65.15 56.4237C64.5716 56.1529 64.0999 55.7838 63.7348 55.3161C63.3697 54.8485 63.1195 54.2988 62.9883 53.6671C62.857 53.0354 62.8734 52.3627 63.0334 51.6572L63.099 51.3741C63.259 50.6645 63.5502 49.9959 63.9686 49.3642C64.387 48.7325 64.8834 48.1828 65.4617 47.7152C66.0401 47.2476 66.68 46.8784 67.3815 46.6077C68.087 46.3287 68.7966 46.1934 69.5145 46.1934ZM65.5356 51.4767L65.5192 51.5464C65.4289 51.9361 65.4207 52.3053 65.4905 52.654C65.5602 53.0026 65.6956 53.3062 65.9007 53.5687C66.1058 53.8271 66.3642 54.0322 66.6841 54.1799C67.0041 54.3276 67.361 54.4014 67.7547 54.4014H70.4949C70.9256 54.4014 71.3358 54.3276 71.7295 54.1799C72.1233 54.0322 72.472 53.8271 72.7838 53.5687C73.0955 53.3103 73.358 53.0026 73.5754 52.654C73.7928 52.3053 73.9446 51.9361 74.0349 51.5464L74.0513 51.4767C74.1415 51.087 74.1497 50.7178 74.08 50.3692C74.0102 50.0205 73.8749 49.7169 73.6698 49.4544C73.4647 49.196 73.2063 48.9909 72.8863 48.8432C72.5663 48.6956 72.2095 48.6217 71.8157 48.6217H69.0756C68.6818 48.6217 68.2921 48.6956 67.9065 48.8432C67.5209 48.9909 67.1682 49.196 66.8441 49.4544C66.5242 49.7128 66.2452 50.0205 66.0196 50.3692C65.7817 50.7178 65.6217 51.087 65.5356 51.4767Z" fill="white"/>
<path d="M65.9415 17.7749C65.2647 17.7749 64.6084 17.9021 63.9808 18.1523C63.3491 18.4025 62.7789 18.7512 62.2662 19.1901C61.7534 19.6331 61.3227 20.1458 60.9782 20.7324C60.6336 21.319 60.408 21.9507 60.3013 22.6275L60.1947 23.3043C60.088 23.9812 60.1209 24.5924 60.2931 25.1461C60.4654 25.6999 60.7443 26.1757 61.1217 26.5736C61.5032 26.9715 61.9708 27.2792 62.5246 27.4966C63.0825 27.714 63.6896 27.8206 64.35 27.8206H76.4015C76.8199 27.8206 77.1481 27.9642 77.3901 28.2472C77.6321 28.5344 77.7224 28.8748 77.6567 29.2727L77.6485 29.326C77.587 29.7239 77.3901 30.0644 77.0579 30.3515C76.7256 30.6387 76.3523 30.7781 75.9339 30.7781H59.4768L58.6113 34.6463H75.8191C76.4959 34.6463 77.144 34.5191 77.7675 34.2689C78.3869 34.0187 78.9571 33.67 79.4698 33.2311C79.9826 32.7881 80.4092 32.2753 80.7578 31.6888C81.1024 31.1022 81.328 30.4705 81.4346 29.7937L81.5413 29.1168C81.648 28.44 81.6192 27.8288 81.4552 27.2751C81.2911 26.7213 81.0245 26.2455 80.6512 25.8476C80.2779 25.4497 79.8144 25.142 79.2606 24.9246C78.7027 24.7072 78.0874 24.6006 77.4106 24.6006H65.3344C64.9366 24.6006 64.6125 24.457 64.3746 24.174C64.1326 23.8868 64.0423 23.5464 64.108 23.1485L64.1162 23.0951C64.1777 22.6973 64.3787 22.3527 64.7109 22.0574C65.0432 21.762 65.4083 21.6143 65.8103 21.6143L85.5325 21.6554L82.5504 34.6422H86.4062L89.3884 21.6554L98.5603 21.68L99.4094 17.7749H65.9415Z" fill="white"/>
<path d="M84.0717 47.8047L77.5537 47.8581L77.8121 45.3066H94.1174L93.215 47.8581L86.7216 47.8047L84.6665 56.825H82.0166L84.0717 47.8047Z" fill="white"/>
<path d="M98.6985 46.1929H103.805C104.236 46.1929 104.622 46.2708 104.962 46.4308C105.303 46.5908 105.582 46.8082 105.799 47.0871C106.016 47.366 106.164 47.686 106.242 48.0511C106.32 48.4161 106.312 48.814 106.213 49.2406L105.389 52.555H94.6744C94.6375 52.7191 94.6498 52.9078 94.7155 53.1211C94.7811 53.3344 94.8918 53.5354 95.0436 53.7241C95.1995 53.9128 95.4005 54.0727 95.6507 54.204C95.9009 54.3353 96.1881 54.4009 96.5121 54.4009H104.63L104.384 56.8293H96.2865C95.5687 56.8293 94.9247 56.6939 94.3463 56.4232C93.7679 56.1524 93.2962 55.7833 92.9311 55.3156C92.566 54.848 92.3158 54.2984 92.1846 53.6667C92.0533 53.0349 92.0697 52.3622 92.2297 51.6567L92.2953 51.3737C92.4553 50.664 92.7465 49.9954 93.1649 49.3637C93.5833 48.732 94.0797 48.1823 94.658 47.7147C95.2364 47.2471 95.8763 46.8779 96.5778 46.6072C97.271 46.3282 97.9806 46.1929 98.6985 46.1929ZM95.1872 50.6066H103.428L103.699 49.417C103.748 49.1914 103.715 49.0027 103.596 48.8509C103.477 48.6992 103.301 48.6212 103.075 48.6212H98.2555C97.9683 48.6212 97.6771 48.6582 97.3776 48.7361C97.0782 48.814 96.7952 48.933 96.5285 49.0889C96.2578 49.2488 96.0117 49.4539 95.782 49.7C95.5482 49.9503 95.3513 50.2538 95.1872 50.6066Z" fill="white"/>
<path d="M113.195 46.1929H121.345L120.488 48.6212H112.748C112.354 48.6212 111.964 48.6951 111.579 48.8427C111.193 48.9904 110.84 49.1955 110.516 49.4539C110.196 49.7124 109.917 50.02 109.692 50.3687C109.462 50.7173 109.306 51.0865 109.216 51.4762L109.199 51.5459C109.109 51.9356 109.101 52.3048 109.171 52.6535C109.24 53.0021 109.376 53.3057 109.581 53.5682C109.786 53.8266 110.044 54.0317 110.364 54.1794C110.684 54.3271 111.041 54.4009 111.435 54.4009H119.175L118.929 56.8293H110.779C110.061 56.8293 109.417 56.6939 108.838 56.4232C108.26 56.1524 107.788 55.7833 107.423 55.3156C107.058 54.848 106.808 54.2984 106.677 53.6667C106.545 53.0349 106.562 52.3622 106.722 51.6567L106.787 51.3737C106.947 50.664 107.239 49.9954 107.657 49.3637C108.076 48.732 108.572 48.1823 109.15 47.7147C109.729 47.2471 110.369 46.8779 111.07 46.6072C111.767 46.3282 112.477 46.1929 113.195 46.1929Z" fill="white"/>
<path d="M123.019 44.4209H125.456L124.685 47.805H132.212C132.68 47.805 133.098 47.8953 133.467 48.0716C133.84 48.248 134.144 48.49 134.378 48.7895C134.616 49.0889 134.772 49.4458 134.854 49.8519C134.936 50.258 134.923 50.6928 134.817 51.1563L133.525 56.8293H131.088L132.339 51.3327C132.409 51.0251 132.36 50.7666 132.196 50.5533C132.031 50.34 131.789 50.2334 131.482 50.2334H124.135L122.634 56.8252H120.197L123.019 44.4209Z" fill="white"/>
<path d="M21.1387 46.7432L20.6506 47.7974H14.998L14.8053 48.6178H18.7883L18.4314 49.5038H14.5961L14.4074 50.316H20.0599L20.0558 51.3784H12.9922L14.0751 46.7432H21.1387Z" fill="white"/>
<path d="M21.1551 49.5652L22.3323 46.3984H23.3988L22.3282 49.2739C22.2708 49.4298 22.2339 49.5775 22.2216 49.7169C22.2093 49.8564 22.2216 49.9754 22.2626 50.0779C22.3036 50.1805 22.3733 50.2625 22.4718 50.324C22.5743 50.3814 22.7097 50.4143 22.882 50.4143H23.526L23.3004 51.3823H22.48C21.8483 51.3823 21.4135 51.2223 21.1838 50.9065C20.9541 50.5824 20.9418 50.1394 21.1551 49.5652Z" fill="white"/>
</svg>
