<svg width="46" height="32" viewBox="0 0 46 32" fill="none" xmlns="http://www.w3.org/2000/svg">
<rect x="0.5" y="0.500977" width="45" height="31" rx="5.5" fill="white"/>
<rect x="0.5" y="0.500977" width="45" height="31" rx="5.5" stroke="#F2F4F7"/>
<path fill-rule="evenodd" clip-rule="evenodd" d="M22.9053 22.4401C21.3266 23.7709 19.2787 24.5742 17.0409 24.5742C12.0478 24.5742 8 20.5746 8 15.6409C8 10.7071 12.0478 6.70752 17.0409 6.70752C19.2787 6.70752 21.3266 7.51085 22.9053 8.84158C24.484 7.51085 26.5319 6.70752 28.7697 6.70752C33.7628 6.70752 37.8106 10.7071 37.8106 15.6409C37.8106 20.5746 33.7628 24.5742 28.7697 24.5742C26.5319 24.5742 24.484 23.7709 22.9053 22.4401Z" fill="#ED0006"/>
<path fill-rule="evenodd" clip-rule="evenodd" d="M22.9053 22.4401C24.8492 20.8016 26.0818 18.3635 26.0818 15.6409C26.0818 12.9182 24.8492 10.4801 22.9053 8.84157C24.484 7.51085 26.5319 6.70752 28.7697 6.70752C33.7628 6.70752 37.8106 10.7071 37.8106 15.6409C37.8106 20.5746 33.7628 24.5742 28.7697 24.5742C26.5319 24.5742 24.484 23.7709 22.9053 22.4401Z" fill="#F9A000"/>
<path fill-rule="evenodd" clip-rule="evenodd" d="M22.905 22.4403C24.8489 20.8018 26.0815 18.3636 26.0815 15.641C26.0815 12.9185 24.8489 10.4803 22.905 8.8418C20.9611 10.4803 19.7285 12.9185 19.7285 15.641C19.7285 18.3636 20.9611 20.8018 22.905 22.4403Z" fill="#FF5E00"/>
</svg>
