<svg width="56" height="56" viewBox="0 0 56 56" fill="none" xmlns="http://www.w3.org/2000/svg">
<rect width="56" height="56" rx="28" fill="#0B161F"/>
<path d="M31 33V34C31 35.6569 29.6569 37 28 37C26.3431 37 25 35.6569 25 34V33M31 33H25M31 33H34.5905C34.973 33 35.1652 33 35.3201 32.9478C35.616 32.848 35.8475 32.6156 35.9473 32.3198C35.9997 32.1643 35.9997 31.9715 35.9997 31.5859C35.9997 31.4172 35.9995 31.3329 35.9863 31.2524C35.9614 31.1004 35.9024 30.9563 35.8126 30.8312C35.7651 30.7651 35.7048 30.7048 35.5858 30.5858L35.1963 30.1963C35.0706 30.0706 35 29.9001 35 29.7224V26C35 22.134 31.866 19 28 19C24.134 19 21 22.134 21 26V29.7224C21 29.9002 20.9292 30.0706 20.8036 30.1963L20.4141 30.5858C20.2948 30.7051 20.235 30.765 20.1875 30.8312C20.0977 30.9564 20.0381 31.1004 20.0132 31.2524C20 31.3329 20 31.4172 20 31.586C20 31.9715 20 32.1642 20.0525 32.3197C20.1523 32.6156 20.3848 32.848 20.6807 32.9478C20.8356 33 21.027 33 21.4096 33H25" stroke="#FCF6F1" stroke-width="2" stroke-linecap="round" stroke-linejoin="round"/>
</svg>
