<svg width="57" height="56" viewBox="0 0 57 56" fill="none" xmlns="http://www.w3.org/2000/svg">
<path fill-rule="evenodd" clip-rule="evenodd" d="M29.917 42.001H21.7503C20.467 42.001 19.417 40.951 19.417 39.6677C19.417 38.3843 20.467 37.3343 21.7503 37.3343H29.917C33.137 37.3343 35.7503 34.721 35.7503 31.501C35.7503 28.281 33.137 25.6677 29.917 25.6677H25.0403L28.0737 28.6777C28.9837 29.5877 28.9837 31.081 28.0737 31.991C27.607 32.4343 27.0237 32.6677 26.417 32.6677C25.8103 32.6677 25.227 32.4343 24.7603 31.991L17.7603 24.991C17.6903 24.8977 17.6437 24.8043 17.597 24.7343C17.4803 24.571 17.3403 24.431 17.2703 24.2443C17.1537 23.9643 17.0837 23.6377 17.0837 23.3343C17.0837 23.031 17.1537 22.7043 17.2703 22.4243C17.3403 22.2377 17.4803 22.0977 17.597 21.9343C17.667 21.8643 17.6903 21.7477 17.7603 21.6777L24.7603 14.6777C25.6703 13.7677 27.1637 13.7677 28.0737 14.6777C28.9837 15.5877 28.9837 17.081 28.0737 17.991L25.0403 21.001H29.917C35.7037 21.001 40.417 25.7143 40.417 31.501C40.417 37.2877 35.7037 42.001 29.917 42.001ZM50.5437 15.9377L44.337 8.16766C42.5637 5.951 39.9037 4.66766 37.057 4.66766H20.4437C17.597 4.66766 14.937 5.951 13.1637 8.16766L6.95699 15.9377C5.95366 17.1743 5.41699 18.7143 5.41699 20.301V42.001C5.41699 47.1577 9.59366 51.3343 14.7503 51.3343H42.7503C47.907 51.3343 52.0837 47.1577 52.0837 42.001V20.301C52.0837 18.7143 51.547 17.1743 50.5437 15.9377Z" fill="#2177F4"/>
</svg>
