<svg width="46" height="32" viewBox="0 0 46 32" fill="none" xmlns="http://www.w3.org/2000/svg">
<rect x="0.5" y="0.500977" width="45" height="31" rx="3.5" fill="white"/>
<rect x="0.5" y="0.500977" width="45" height="31" rx="3.5" stroke="#F2F4F7"/>
<path fill-rule="evenodd" clip-rule="evenodd" d="M19.485 24.5989L19.7793 22.6667L19.1237 22.6509H15.9932L18.1688 8.39274C18.1756 8.34956 18.1975 8.30948 18.2295 8.28097C18.2617 8.25246 18.3026 8.23682 18.3455 8.23682H23.6242C25.3767 8.23682 26.5861 8.61366 27.2174 9.35759C27.5134 9.70657 27.7019 10.0714 27.7932 10.4727C27.8889 10.8938 27.8905 11.3969 27.7972 12.0107L27.7904 12.0553V12.4486L28.0864 12.622C28.3356 12.7587 28.5338 12.9151 28.6857 13.0941C28.9389 13.3926 29.1027 13.7719 29.1719 14.2214C29.2434 14.6838 29.2198 15.2342 29.1027 15.8572C28.9676 16.5738 28.7493 17.1979 28.4543 17.7085C28.1832 18.1791 27.8377 18.5694 27.4274 18.8718C27.0356 19.1592 26.5703 19.3774 26.0441 19.517C25.5342 19.6542 24.9528 19.7234 24.3152 19.7234H23.9044C23.6108 19.7234 23.3254 19.8328 23.1014 20.0288C22.8768 20.2288 22.7283 20.5022 22.6828 20.8012L22.6517 20.9752L22.1317 24.3809L22.1082 24.5058C22.1019 24.5454 22.0912 24.5651 22.0754 24.5785C22.0614 24.5907 22.0412 24.5989 22.0215 24.5989H19.485Z" fill="#28356A"/>
<path fill-rule="evenodd" clip-rule="evenodd" d="M28.3668 12.1006C28.3512 12.2047 28.3331 12.3111 28.3129 12.4204C27.6168 16.1146 25.2351 17.3908 22.1934 17.3908H20.6447C20.2727 17.3908 19.9591 17.6699 19.9013 18.0492L18.8838 24.7202C18.8461 24.9693 19.0318 25.1937 19.2749 25.1937H22.0218C22.347 25.1937 22.6233 24.9494 22.6745 24.6179L22.7015 24.4737L23.2187 21.0814L23.2519 20.8953C23.3025 20.5626 23.5795 20.3183 23.9047 20.3183H24.3155C26.9768 20.3183 29.0602 19.2016 29.6692 15.9698C29.9234 14.6198 29.7918 13.4925 29.1187 12.6997C28.915 12.4607 28.6624 12.2622 28.3668 12.1006Z" fill="#298FC2"/>
<path fill-rule="evenodd" clip-rule="evenodd" d="M27.6388 11.8007C27.5324 11.7686 27.4226 11.7396 27.3101 11.7134C27.1969 11.6878 27.0811 11.6652 26.9617 11.6453C26.5442 11.5756 26.0866 11.5425 25.5965 11.5425H21.4591C21.3571 11.5425 21.2603 11.5663 21.1738 11.6093C20.9829 11.7041 20.8412 11.8908 20.8068 12.1194L19.9266 17.8814L19.9014 18.0494C19.9592 17.6701 20.2727 17.391 20.6448 17.391H22.1935C25.2352 17.391 27.6168 16.1142 28.313 12.4207C28.3338 12.3113 28.3513 12.2049 28.3669 12.1008C28.1908 12.0042 28.0001 11.9216 27.7947 11.8512C27.7439 11.8338 27.6916 11.817 27.6388 11.8007Z" fill="#22284F"/>
<path fill-rule="evenodd" clip-rule="evenodd" d="M20.8069 12.1193C20.8412 11.8907 20.9829 11.704 21.1738 11.6098C21.261 11.5667 21.3572 11.5429 21.4591 11.5429H25.5965C26.0866 11.5429 26.5442 11.5761 26.9618 11.6458C27.0811 11.6656 27.197 11.6884 27.3101 11.7139C27.4227 11.74 27.5324 11.7692 27.6388 11.8011C27.6916 11.8174 27.7439 11.8343 27.7952 11.8511C28.0006 11.9215 28.1915 12.0048 28.3675 12.1007C28.5747 10.7356 28.3658 9.80608 27.6517 8.9644C26.8644 8.03768 25.4435 7.64111 23.6252 7.64111H18.3464C17.975 7.64111 17.6581 7.92021 17.6008 8.30015L15.4021 22.7049C15.3588 22.9899 15.5714 23.247 15.8495 23.247H19.1084L20.8069 12.1193Z" fill="#28356A"/>
</svg>
