<svg width="24" height="24" viewBox="0 0 24 24" fill="none" xmlns="http://www.w3.org/2000/svg">
<path fill-rule="evenodd" clip-rule="evenodd" d="M15.8909 20.9902C14.8609 20.9902 13.8579 20.7052 12.9119 20.1422L12.8989 20.1322C7.90292 16.0982 7.90292 16.0982 3.86992 11.1022L3.85192 11.0812C2.20292 8.23919 3.22092 5.26119 5.01692 3.85819C5.74092 3.29219 6.54292 2.99219 7.33792 2.99219C8.25192 2.99219 9.12092 3.38119 9.85192 4.11519C11.6659 5.92919 11.3969 7.17419 10.2639 8.83819C9.31692 10.2732 9.20392 11.2082 11.0059 12.9992C11.8519 13.8442 12.5959 14.4102 13.4709 14.4102C14.1459 14.4102 14.6559 14.0682 15.1489 13.7372C16.0739 13.1132 16.7669 12.8382 17.4089 12.8382C18.1969 12.8382 19.0059 13.2652 19.8819 14.1452C21.2849 15.5482 21.3829 17.4002 20.1439 18.9832C19.1729 20.2202 17.5439 20.9902 15.8909 20.9902Z" fill="#2177F4"/>
</svg>
