<svg width="65" height="64" viewBox="0 0 65 64" fill="none" xmlns="http://www.w3.org/2000/svg">
<path fill-rule="evenodd" clip-rule="evenodd" d="M40.5 58.6667H24.5C20.0813 58.6667 16.5 55.0853 16.5 50.6667V13.3333C16.5 8.91468 20.0813 5.33334 24.5 5.33334H40.5C44.9187 5.33334 48.5 8.91468 48.5 13.3333V50.6667C48.5 55.0853 44.9187 58.6667 40.5 58.6667Z" stroke="black" stroke-width="1.72973" stroke-linecap="round" stroke-linejoin="round"/>
<path fill-rule="evenodd" clip-rule="evenodd" d="M32.5026 48C31.0306 48 29.8359 49.1947 29.8359 50.6667C29.8359 52.1387 31.0306 53.3333 32.5026 53.3333C33.9746 53.3333 35.1693 52.1387 35.1693 50.6667C35.1693 49.1947 33.9746 48 32.5026 48Z" fill="black"/>
<path d="M43.4201 41.2233L38.2241 36.0273C39.5931 34.3844 40.3387 32.3343 40.3387 30.1694C40.3387 25.1018 36.2377 21 31.1693 21C26.0025 21 21.8579 25.2588 22.0037 30.4274C22.138 35.3257 26.1396 39.3389 31.1693 39.3389C33.2589 39.3389 35.3298 38.6386 37.0271 37.2244L42.2231 42.4202C42.5536 42.7508 43.0895 42.7508 43.4201 42.4202C43.7506 42.0898 43.7506 41.5538 43.4201 41.2233ZM31.1693 22.6928C35.2919 22.6928 38.6458 26.0469 38.6458 30.1695C38.6458 32.7562 37.3253 35.0402 35.323 36.3831L34.8383 35.8441V34.4824L36.3742 32.7749C36.6194 32.5025 36.6612 32.1031 36.4779 31.7857L35.0841 29.3716C34.9008 29.054 34.5338 28.8905 34.1756 28.9667L31.9288 29.4431L30.7496 28.7622L30.0387 26.5784C29.9253 26.2297 29.6005 25.9938 29.2338 25.9938H26.4461C26.0796 25.9938 25.7547 26.2297 25.6413 26.5784L24.9305 28.7622L23.7513 29.4431L23.7285 29.4383C24.0971 25.6576 27.2933 22.6928 31.1693 22.6928ZM30.2047 37.5841C32.3578 35.4805 30.8863 31.7776 27.84 31.7776C26.4168 31.7776 25.1958 32.6603 24.6959 33.9071C24.2166 33.0788 23.8933 32.1464 23.7609 31.1743C23.952 31.2047 24.1482 31.1687 24.3165 31.0715L26.0581 30.0659C26.2391 29.9614 26.375 29.7936 26.4398 29.5949L27.0609 27.6867H28.6193L29.2402 29.5949C29.305 29.7936 29.4409 29.9614 29.622 30.0659L31.3635 31.0713C31.5446 31.176 31.7578 31.2099 31.9623 31.1664L33.9254 30.7501L34.7046 32.0998L33.3625 33.5917C33.2228 33.7471 33.1455 33.9488 33.1455 34.1578V36.1688C33.1455 36.3778 33.2228 36.5795 33.3625 36.7349L33.7643 37.1814C32.6722 37.5869 31.4457 37.7446 30.2047 37.5841ZM26.2814 35.8227C25.8071 34.7091 26.6324 33.4705 27.84 33.4705C28.7736 33.4705 29.5328 34.2298 29.5328 35.1634C29.5328 36.0967 28.7736 36.8562 27.84 36.8562C27.8356 36.8562 27.8309 36.8559 27.8265 36.8559C27.2682 36.5755 26.7493 36.2278 26.2814 35.8227Z" fill="black"/>
</svg>
