<svg width="24" height="24" viewBox="0 0 24 24" fill="none" xmlns="http://www.w3.org/2000/svg">
<path opacity="0.55" fill-rule="evenodd" clip-rule="evenodd" d="M12.428 2C11.314 2 10.299 2.6 8.27101 3.802L7.58501 4.208C5.55501 5.41 4.54201 6.011 3.98501 7C3.42801 7.99 3.42801 9.19 3.42801 11.594V12.406C3.42801 14.809 3.42801 16.011 3.98501 17C4.54201 17.989 5.55501 18.59 7.58501 19.791L8.27101 20.198C10.299 21.399 11.314 22 12.428 22C13.542 22 14.556 21.4 16.585 20.198L17.271 19.791C19.299 18.591 20.314 17.989 20.871 17C21.428 16.01 21.428 14.81 21.428 12.406V11.594C21.428 9.191 21.428 7.989 20.871 7C20.314 6.011 19.299 5.41 17.271 4.208L16.585 3.802C14.555 2.601 13.542 2 12.428 2Z" fill="#0B1839"/>
<path d="M12.428 8.25C11.4334 8.25 10.4796 8.64509 9.77636 9.34835C9.0731 10.0516 8.67801 11.0054 8.67801 12C8.67801 12.9946 9.0731 13.9484 9.77636 14.6517C10.4796 15.3549 11.4334 15.75 12.428 15.75C13.4226 15.75 14.3764 15.3549 15.0797 14.6517C15.7829 13.9484 16.178 12.9946 16.178 12C16.178 11.0054 15.7829 10.0516 15.0797 9.34835C14.3764 8.64509 13.4226 8.25 12.428 8.25Z" fill="#0B1839"/>
</svg>
