<svg width="24" height="25" viewBox="0 0 24 25" fill="none" xmlns="http://www.w3.org/2000/svg">
<path opacity="0.5" d="M2 6.71C2 4.726 2 3.733 2.659 3.117C3.318 2.501 4.379 2.5 6.5 2.5C8.621 2.5 9.682 2.5 10.341 3.117C11 3.733 11 4.726 11 6.71V18.29C11 20.274 11 21.267 10.341 21.883C9.682 22.499 8.621 22.5 6.5 22.5C4.379 22.5 3.318 22.5 2.659 21.883C2 21.267 2 20.274 2 18.29V6.71Z" fill="#0B1839"/>
<path d="M13 15.9C13 13.826 13 12.789 13.659 12.144C14.318 11.499 15.379 11.5 17.5 11.5C19.621 11.5 20.682 11.5 21.341 12.144C22 12.79 22 13.826 22 15.9V18.1C22 20.174 22 21.211 21.341 21.856C20.682 22.501 19.621 22.5 17.5 22.5C15.379 22.5 14.318 22.5 13.659 21.856C13 21.21 13 20.174 13 18.1V15.9ZM13 6C13 4.913 13 4.37 13.171 3.94C13.3944 3.37497 13.8322 2.92128 14.389 2.678C14.802 2.5 15.327 2.5 16.375 2.5H18.625C19.673 2.5 20.198 2.5 20.611 2.678C21.162 2.914 21.601 3.368 21.829 3.94C22 4.37 22 4.913 22 6C22 7.087 22 7.63 21.829 8.06C21.6056 8.62503 21.1678 9.07872 20.611 9.322C20.198 9.5 19.673 9.5 18.625 9.5H16.375C15.327 9.5 14.802 9.5 14.389 9.322C13.8322 9.07872 13.3944 8.62503 13.171 8.06C13 7.63 13 7.087 13 6Z" fill="#0B1839"/>
</svg>
