<svg width="16" height="15" viewBox="0 0 16 15" fill="none" xmlns="http://www.w3.org/2000/svg">
<path d="M7.04992 0.926577C7.34927 0.00526619 8.65268 0.00526667 8.95203 0.926577L10.0216 4.21837C10.1555 4.6304 10.5394 4.90936 10.9727 4.90936H14.4339C15.4026 4.90936 15.8054 6.14897 15.0216 6.71837L12.2215 8.75282C11.871 9.00746 11.7243 9.45883 11.8582 9.87085L12.9278 13.1626C13.2271 14.084 12.1726 14.8501 11.3889 14.2807L8.58876 12.2462C8.23827 11.9916 7.76368 11.9916 7.41319 12.2462L4.61302 14.2807C3.82931 14.8501 2.77483 14.084 3.07418 13.1626L4.14375 9.87085C4.27762 9.45883 4.13097 9.00746 3.78048 8.75282L0.980309 6.71837C0.196596 6.14897 0.599371 4.90936 1.56809 4.90936H5.02929C5.46252 4.90936 5.84648 4.6304 5.98035 4.21837L7.04992 0.926577Z" fill="#CCCCCC"/>
</svg>
