<svg width="57" height="56" viewBox="0 0 57 56" fill="none" xmlns="http://www.w3.org/2000/svg">
<path fill-rule="evenodd" clip-rule="evenodd" d="M50.883 23.8243L41.2697 33.1343L43.533 46.271C43.673 47.1343 43.323 48.021 42.5997 48.5577C42.203 48.861 41.713 49.001 41.223 49.001C40.8497 49.001 40.4997 48.9077 40.1497 48.7443L28.2497 42.5143L16.3497 48.7443C15.5564 49.141 14.623 49.071 13.8997 48.5577C13.1764 48.021 12.8264 47.1343 12.9664 46.271L15.2297 33.1343L5.61638 23.8243C4.98638 23.2177 4.75305 22.2843 5.03305 21.4443C5.31305 20.581 6.03638 19.9743 6.92304 19.8343L20.223 17.921L26.1497 5.951C26.943 4.38767 29.5564 4.38767 30.3497 5.951L36.2764 17.921L49.5764 19.8343C50.463 19.9743 51.1864 20.581 51.4664 21.4443C51.7464 22.2843 51.513 23.2177 50.883 23.8243Z" fill="#2177F4"/>
</svg>
