<svg width="24" height="24" viewBox="0 0 24 24" fill="none" xmlns="http://www.w3.org/2000/svg">
<path opacity="0.4" d="M9 2C6.38 2 4.25 4.13 4.25 6.75C4.25 9.32 6.26 11.4 8.88 11.49C8.96 11.48 9.04 11.48 9.1 11.49C9.12 11.49 9.13 11.49 9.15 11.49C9.16 11.49 9.16 11.49 9.17 11.49C11.73 11.4 13.74 9.32 13.75 6.75C13.75 4.13 11.62 2 9 2Z" fill="#0B1839"/>
<path d="M14.08 14.15C11.29 12.29 6.73999 12.29 3.92999 14.15C2.65999 15 1.95999 16.15 1.95999 17.38C1.95999 18.61 2.65999 19.75 3.91999 20.59C5.31999 21.53 7.15999 22 8.99999 22C10.84 22 12.68 21.53 14.08 20.59C15.34 19.74 16.04 18.6 16.04 17.36C16.03 16.13 15.34 14.99 14.08 14.15Z" fill="#0B1839"/>
<path opacity="0.4" d="M19.99 7.33998C20.15 9.27998 18.77 10.98 16.86 11.21C16.85 11.21 16.85 11.21 16.84 11.21H16.81C16.75 11.21 16.69 11.21 16.64 11.23C15.67 11.28 14.78 10.97 14.11 10.4C15.14 9.47998 15.73 8.09998 15.61 6.59998C15.54 5.78998 15.26 5.04998 14.84 4.41998C15.22 4.22998 15.66 4.10998 16.11 4.06998C18.07 3.89998 19.82 5.35998 19.99 7.33998Z" fill="#0B1839"/>
<path d="M21.9902 16.5904C21.9102 17.5604 21.2902 18.4004 20.2502 18.9704C19.2502 19.5204 17.9902 19.7804 16.7402 19.7504C17.4602 19.1004 17.8802 18.2904 17.9602 17.4304C18.0602 16.1904 17.4702 15.0004 16.2902 14.0504C15.6202 13.5204 14.8402 13.1004 13.9902 12.7904C16.2002 12.1504 18.9802 12.5804 20.6902 13.9604C21.6102 14.7004 22.0802 15.6304 21.9902 16.5904Z" fill="#0B1839"/>
</svg>
