<svg width="64" height="64" viewBox="0 0 64 64" fill="none" xmlns="http://www.w3.org/2000/svg">
<path fill-rule="evenodd" clip-rule="evenodd" d="M40 58.6667H24C19.5813 58.6667 16 55.0853 16 50.6667V13.3333C16 8.91468 19.5813 5.33334 24 5.33334H40C44.4187 5.33334 48 8.91468 48 13.3333V50.6667C48 55.0853 44.4187 58.6667 40 58.6667Z" stroke="black" stroke-width="1.72973" stroke-linecap="round" stroke-linejoin="round"/>
<path fill-rule="evenodd" clip-rule="evenodd" d="M32.0026 48C30.5306 48 29.3359 49.1947 29.3359 50.6667C29.3359 52.1387 30.5306 53.3333 32.0026 53.3333C33.4746 53.3333 34.6693 52.1387 34.6693 50.6667C34.6693 49.1947 33.4746 48 32.0026 48Z" fill="black"/>
<path d="M37.1287 25.3929H28.6176V23.5845C28.6176 21.7043 30.1462 20.1757 32.0264 20.1757C33.4042 20.1757 34.6313 20.9938 35.1696 22.2569C35.3274 22.6228 35.7437 22.7951 36.1097 22.6372C36.4757 22.4865 36.6479 22.0631 36.49 21.6971C35.7293 19.903 33.9783 18.7405 32.0264 18.7405C29.3568 18.7405 27.1824 20.9149 27.1824 23.5845V25.3929H26.8666C25.2806 25.3929 23.9961 26.6774 23.9961 28.2634V35.9636C23.9961 37.5495 25.2806 38.8341 26.8666 38.8341H37.1287C38.7147 38.8341 39.9992 37.5495 39.9992 35.9636V28.2634C39.9992 26.6846 38.7147 25.3929 37.1287 25.3929ZM38.564 35.9636C38.564 36.753 37.9181 37.3988 37.1287 37.3988H26.8666C26.0772 37.3988 25.4314 36.753 25.4314 35.9636V28.2634C25.4314 27.474 26.0772 26.8282 26.8666 26.8282H37.1287C37.9181 26.8282 38.564 27.474 38.564 28.2634V35.9636ZM33.2894 31.909C33.2894 32.3539 33.0597 32.7558 32.7153 32.9854V34.7436C32.7153 35.1383 32.3923 35.4612 31.9977 35.4612C31.603 35.4612 31.28 35.1383 31.28 34.7436V32.9854C30.9356 32.7558 30.7059 32.3539 30.7059 31.909C30.7059 31.1985 31.2872 30.6172 31.9977 30.6172C32.7081 30.6172 33.2894 31.1913 33.2894 31.909Z" fill="black"/>
</svg>
