<svg width="65" height="64" viewBox="0 0 65 64" fill="none" xmlns="http://www.w3.org/2000/svg">
<path fill-rule="evenodd" clip-rule="evenodd" d="M40.5 58.6667H24.5C20.0813 58.6667 16.5 55.0853 16.5 50.6667V13.3333C16.5 8.91468 20.0813 5.33334 24.5 5.33334H40.5C44.9187 5.33334 48.5 8.91468 48.5 13.3333V50.6667C48.5 55.0853 44.9187 58.6667 40.5 58.6667Z" stroke="black" stroke-width="1.72973" stroke-linecap="round" stroke-linejoin="round"/>
<path fill-rule="evenodd" clip-rule="evenodd" d="M32.5026 48C31.0306 48 29.8359 49.1947 29.8359 50.6667C29.8359 52.1387 31.0306 53.3333 32.5026 53.3333C33.9746 53.3333 35.1693 52.1387 35.1693 50.6667C35.1693 49.1947 33.9746 48 32.5026 48Z" fill="black"/>
<path d="M28.6088 41.0152C28.4945 41.0152 28.3774 40.9877 28.2703 40.9313C27.9594 40.7665 27.8118 40.4005 27.9232 40.065L30.9519 30.8906H25.2778C25.0088 30.8906 24.7629 30.7417 24.6371 30.503C24.5127 30.2644 24.53 29.9765 24.6833 29.7552L34.7009 15.2916C34.8976 15.0081 35.2722 14.9068 35.5846 15.0399C35.9014 15.1787 36.0764 15.5215 36.0026 15.8585L33.9661 25.1052H39.7415C40.0163 25.1052 40.268 25.2614 40.3909 25.5087C40.5124 25.756 40.482 26.0511 40.3142 26.2695L29.1815 40.7332C29.0412 40.9169 28.8272 41.0152 28.6088 41.0152ZM26.6591 29.4443H31.9528C32.1856 29.4443 32.4026 29.5556 32.5386 29.7437C32.6745 29.9317 32.7121 30.1732 32.6384 30.3945L30.6279 36.4823L38.272 26.5515H33.0665C32.8481 26.5515 32.6398 26.4517 32.5024 26.2811C32.365 26.1104 32.3129 25.8862 32.3592 25.6722L33.7998 19.1331L26.6591 29.4443Z" fill="black"/>
</svg>
