<svg width="24" height="24" viewBox="0 0 24 24" fill="none" xmlns="http://www.w3.org/2000/svg">
<path d="M23.0605 6.90492C22.4539 5.55738 21.5832 4.34754 20.4776 3.30492C19.372 2.27213 18.0903 1.45574 16.6619 0.885246C15.1845 0.295082 13.6191 0 12.0048 0C10.3905 0 8.82503 0.295082 7.34767 0.885246C5.91923 1.45574 4.63755 2.26229 3.53197 3.30492C2.4264 4.34754 1.55565 5.55738 0.949051 6.90492C0.322886 8.30164 0 9.79672 0 11.3311C0 14.0164 0.997942 16.5934 2.82752 18.6393L1.84914 24L7.05416 21.6688C8.60979 22.3377 10.2633 22.6721 11.995 22.6721C13.6093 22.6721 15.1748 22.377 16.6521 21.7869C18.0806 21.2164 19.3622 20.4098 20.4678 19.3672C21.5734 18.3246 22.4441 17.1148 23.0507 15.7672C23.6769 14.3705 23.9998 12.8754 23.9998 11.341C24.0096 9.79672 23.6867 8.31148 23.0605 6.90492Z" fill="#2177F4"/>
<path d="M16.877 13.5934C16.3682 13.3377 15.9965 13.1803 15.7323 13.082C15.566 13.0229 15.1746 12.8459 15.0377 12.9541C14.6072 13.3082 14.1473 14.3115 13.6581 14.4983C12.4449 14.2623 11.3198 13.4262 10.4393 12.5705C10.0479 12.1967 9.3239 11.1344 9.16736 10.8492C9.138 10.5541 9.66631 10.1606 9.78372 9.93441C10.3903 9.24589 9.9305 8.8131 9.85222 8.52786C9.71525 8.23278 9.48045 7.70163 9.27499 7.26884C9.09888 6.9836 9.0597 6.56064 8.74662 6.40327C7.41602 5.71474 6.65292 7.09179 6.33984 7.80982C4.45155 12.3836 15.8008 21.0885 18.1098 15.0885C18.2272 14.5672 18.1783 14.3705 18.0021 14.1344C17.6499 13.8885 17.239 13.7803 16.877 13.5934Z" fill="white"/>
</svg>
