<svg width="24" height="25" viewBox="0 0 24 25" fill="none" xmlns="http://www.w3.org/2000/svg">
<path opacity="0.5" d="M1 12.5C1 7.315 1 4.722 2.61 3.11C4.223 1.5 6.816 1.5 12 1.5C17.184 1.5 19.778 1.5 21.39 3.11C23 4.723 23 7.316 23 12.5C23 17.684 23 20.278 21.39 21.89C19.777 23.5 17.184 23.5 12 23.5C6.816 23.5 4.222 23.5 2.61 21.89C1 20.277 1 17.684 1 12.5Z" fill="#0B1839"/>
<path d="M13.9262 14.8017C14.1712 14.6107 14.3932 14.3887 14.8382 13.9437L20.3782 8.40368C20.5122 8.26968 20.4512 8.03868 20.2722 7.97669C19.4063 7.67284 18.6201 7.17754 17.9722 6.52768C17.322 5.87987 16.8263 5.09368 16.5222 4.22768C16.4612 4.04768 16.2302 3.98768 16.0962 4.12168L10.5562 9.66168C10.1112 10.1057 9.88917 10.3287 9.69817 10.5737C9.47226 10.8623 9.27877 11.1748 9.12117 11.5057C8.98817 11.7857 8.88817 12.0847 8.69017 12.6807L8.43317 13.4507L8.02417 14.6767L7.64217 15.8247C7.59446 15.9685 7.58766 16.1227 7.62252 16.2701C7.65738 16.4175 7.73254 16.5523 7.8396 16.6594C7.94666 16.7666 8.0814 16.8419 8.22878 16.8769C8.37615 16.9119 8.53036 16.9053 8.67417 16.8577L9.82417 16.4747L11.0482 16.0667L11.8182 15.8097C12.4152 15.6107 12.7132 15.5117 12.9932 15.3777C13.3252 15.2197 13.6362 15.0277 13.9262 14.8017ZM22.1132 6.66968C22.6811 6.10186 23.0003 5.33166 23.0004 4.52854C23.0005 3.72541 22.6815 2.95515 22.1137 2.38718C21.5458 1.81922 20.7757 1.50009 19.9725 1.5C19.1694 1.49991 18.3991 1.81886 17.8312 2.38668L17.6522 2.56468C17.5674 2.64818 17.5043 2.75115 17.4684 2.86461C17.4325 2.97808 17.4248 3.0986 17.4462 3.21568C17.4732 3.36568 17.5232 3.58568 17.6142 3.84868C17.8591 4.55071 18.2606 5.1878 18.7882 5.71168C19.3118 6.23917 19.9485 6.64063 20.6502 6.88568C20.9132 6.97569 21.1332 7.02668 21.2832 7.05368C21.5232 7.09668 21.7632 7.01868 21.9352 6.84668L22.1132 6.66968Z" fill="#0B1839"/>
</svg>
