<svg width="129" height="32" viewBox="0 0 129 32" fill="none" xmlns="http://www.w3.org/2000/svg">
<path d="M9.0767 31L0.752841 1.90909H7.47159L12.2869 22.1222H12.5284L17.8409 1.90909H23.5938L28.892 22.1648H29.1477L33.9631 1.90909H40.6818L32.358 31H26.3636L20.8239 11.9801H20.5966L15.071 31H9.0767ZM51.3743 31.4261C49.1679 31.4261 47.2597 30.9574 45.6499 30.0199C44.0495 29.0729 42.8137 27.7566 41.9425 26.071C41.0713 24.3759 40.6357 22.411 40.6357 20.1761C40.6357 17.9223 41.0713 15.9527 41.9425 14.267C42.8137 12.572 44.0495 11.2557 45.6499 10.3182C47.2597 9.37121 49.1679 8.89773 51.3743 8.89773C53.5807 8.89773 55.4841 9.37121 57.0845 10.3182C58.6944 11.2557 59.9349 12.572 60.8061 14.267C61.6773 15.9527 62.1129 17.9223 62.1129 20.1761C62.1129 22.411 61.6773 24.3759 60.8061 26.071C59.9349 27.7566 58.6944 29.0729 57.0845 30.0199C55.4841 30.9574 53.5807 31.4261 51.3743 31.4261ZM51.4027 26.7386C52.4065 26.7386 53.2446 26.4545 53.9169 25.8864C54.5893 25.3087 55.0959 24.5227 55.4368 23.5284C55.7872 22.5341 55.9624 21.4025 55.9624 20.1335C55.9624 18.8646 55.7872 17.733 55.4368 16.7386C55.0959 15.7443 54.5893 14.9583 53.9169 14.3807C53.2446 13.803 52.4065 13.5142 51.4027 13.5142C50.3894 13.5142 49.5372 13.803 48.8459 14.3807C48.1641 14.9583 47.648 15.7443 47.2976 16.7386C46.9567 17.733 46.7862 18.8646 46.7862 20.1335C46.7862 21.4025 46.9567 22.5341 47.2976 23.5284C47.648 24.5227 48.1641 25.3087 48.8459 25.8864C49.5372 26.4545 50.3894 26.7386 51.4027 26.7386ZM66.0476 31V9.18182H71.9141V12.9886H72.1413C72.5391 11.6345 73.2067 10.6117 74.1442 9.92045C75.0817 9.2197 76.1612 8.86932 77.3828 8.86932C77.6858 8.86932 78.0125 8.88826 78.3629 8.92614C78.7133 8.96402 79.0211 9.0161 79.2862 9.08239V14.4517C79.0021 14.3665 78.6091 14.2907 78.1072 14.2244C77.6054 14.1581 77.1461 14.125 76.7294 14.125C75.8393 14.125 75.0438 14.3191 74.343 14.7074C73.6518 15.0862 73.1025 15.6165 72.6953 16.2983C72.2976 16.9801 72.0987 17.7661 72.0987 18.6562V31H66.0476ZM87.8977 24.7216L87.9119 17.4631H88.7926L95.7812 9.18182H102.727L93.3381 20.1477H91.9034L87.8977 24.7216ZM82.4148 31V1.90909H88.4659V31H82.4148ZM96.0511 31L89.6307 21.4972L93.6648 17.2216L103.139 31H96.0511ZM105.696 31V9.18182H111.747V31H105.696ZM108.736 6.36932C107.836 6.36932 107.064 6.07102 106.42 5.47443C105.786 4.86837 105.469 4.14394 105.469 3.30114C105.469 2.4678 105.786 1.75284 106.42 1.15625C107.064 0.550188 107.836 0.247158 108.736 0.247158C109.635 0.247158 110.402 0.550188 111.037 1.15625C111.681 1.75284 112.003 2.4678 112.003 3.30114C112.003 4.14394 111.681 4.86837 111.037 5.47443C110.402 6.07102 109.635 6.36932 108.736 6.36932ZM128.2 9.18182V13.7273H115.06V9.18182H128.2ZM118.043 3.95455H124.094V24.2955C124.094 24.8542 124.18 25.2898 124.35 25.6023C124.521 25.9053 124.757 26.1184 125.06 26.2415C125.373 26.3646 125.733 26.4261 126.14 26.4261C126.424 26.4261 126.708 26.4025 126.992 26.3551C127.276 26.2983 127.494 26.2557 127.646 26.2273L128.597 30.7301C128.294 30.8248 127.868 30.9337 127.319 31.0568C126.77 31.1894 126.102 31.2699 125.316 31.2983C123.858 31.3551 122.579 31.161 121.481 30.7159C120.392 30.2708 119.544 29.5795 118.938 28.642C118.332 27.7045 118.034 26.5208 118.043 25.0909V3.95455Z" fill="#0B1839"/>
</svg>
